<svg width="75" height="75" viewBox="0 0 75 75" fill="none" xmlns="http://www.w3.org/2000/svg">
<g clip-path="url(#clip0_1_2)">
<path d="M19.7764 55.0457C21.8012 57.5627 24.8435 60.0002 28.345 60.0002C30.3372 60.0002 32.0293 59.0627 33.8482 58.3784C35.5231 57.7607 37.2943 57.4434 39.0793 57.4409C40.8019 57.4309 42.5087 57.7657 44.0999 58.4253C44.9437 58.7815 45.7782 59.1611 46.6358 59.4892C47.5059 59.8253 48.4308 59.9985 49.3637 60.0002C51.0897 59.9805 52.7693 59.4398 54.1827 58.4488C58.2888 55.6363 61.3312 50.6956 63.4874 46.3695C63.7029 45.9384 63.9093 45.5023 64.1156 45.0712C64.458 44.3493 63.9189 43.4352 62.9625 42.9104C58.7438 40.5947 56.2736 37.0133 55.861 32.0729C55.4483 27.1322 57.3702 23.2323 61.2282 20.4007L61.9874 19.7771C62.4093 19.4302 62.1795 18.4692 61.3873 17.7192V17.7188C58.4693 14.8452 54.5602 13.2013 50.4651 13.1251C49.6703 13.1255 48.8773 13.1912 48.0933 13.3218C44.5308 13.9312 41.6714 15.6282 38.3152 15.6282C37.2969 15.6291 36.2845 15.4709 35.3152 15.1595C32.5027 14.2592 29.7091 13.1251 26.7183 13.1251C26.3902 13.1251 26.0574 13.1251 25.7247 13.1673C22.0375 13.5603 18.5951 15.1989 15.9651 17.8125C10.7807 22.9219 10.045 30.8582 11.3386 37.5654C12.5809 44.0622 15.6369 49.9168 19.7761 55.0447L19.7764 55.0457Z" fill="#00FFE0"/>
<path d="M37.9693 13.125C38.0363 13.1309 38.1036 13.1309 38.171 13.125C48.0754 11.2781 49.1585 3.62819 49.2196 0.834655C49.2238 0.606141 49.133 0.386412 48.968 0.227787C48.8036 0.0695802 48.5805 -0.0128662 48.3524 0.000108755C48.2687 0.000108755 48.1854 0.0093164 48.1038 0.0281502C38.101 2.34383 37.0606 9.55797 37.0316 12.2531C37.0363 12.4942 37.1388 12.7236 37.3154 12.8876C37.4924 13.0521 37.7281 13.1375 37.9691 13.1249L37.9693 13.125ZM47.2317 2.19858C46.8332 5.03916 45.188 9.41273 39.0005 11.0065C39.3755 8.33915 40.9504 4.11087 47.2317 2.19858Z" fill="#00FFE0"/>
</g>
<defs>
<clipPath id="clip0_1_2">
<rect width="75" height="75" fill="white"/>
</clipPath>
</defs>
</svg>
