<svg width="22" height="21" viewBox="0 0 22 21" fill="none" xmlns="http://www.w3.org/2000/svg">
<path d="M11.0628 8.44644H17.5628C17.8378 8.44644 18.0627 8.22148 18.0627 7.94649C18.0627 7.67149 17.8378 7.44653 17.5628 7.44653H11.0628C10.7878 7.44653 10.5629 7.67149 10.5629 7.94649C10.5629 8.22148 10.7878 8.44644 11.0628 8.44644V8.44644Z" fill="#00FFE0"/>
<path d="M11.0628 10.4464H17.5628C17.8378 10.4464 18.0627 10.2215 18.0627 9.94649C18.0627 9.67148 17.8378 9.44653 17.5628 9.44653H11.0628C10.7878 9.44653 10.5629 9.67149 10.5629 9.94649C10.5629 10.2215 10.7878 10.4464 11.0628 10.4464V10.4464Z" fill="#00FFE0"/>
<path d="M1.43787 2.9464H4.43781C4.93777 2.9464 5.38785 2.67139 5.63776 2.2464C5.91277 2.34633 6.16285 2.57145 6.26276 2.8714L7.78776 12.3964C6.63767 12.8213 5.81285 13.8964 5.81285 15.1963C5.81285 16.7713 7.03789 18.0712 8.58784 18.1963C8.73781 19.3212 9.68788 20.1963 10.8629 20.1963C12.0379 20.1963 12.988 19.3212 13.1379 18.1963H15.8379C15.9879 19.3212 16.9379 20.1963 18.1129 20.1963C19.3879 20.1963 20.4129 19.1712 20.4129 17.8963C20.4129 16.6213 19.3879 15.5963 18.1129 15.5963C17.0879 15.5963 16.2379 16.2713 15.938 17.1713H13.0378C12.7378 16.2464 11.8877 15.5963 10.8628 15.5963C9.83779 15.5963 8.98784 16.2463 8.68789 17.1713C7.63789 17.0964 6.81289 16.2464 6.81289 15.1713C6.81289 14.0713 7.71289 13.1713 8.81293 13.1713H19.0629C20.1629 13.1713 21.0629 12.2713 21.0629 11.1712L21.0628 6.94638C21.0628 5.84634 20.1628 4.94635 19.0627 4.94635H7.61276L7.23783 2.67131C7.23783 2.64637 7.23783 2.62126 7.2129 2.59632C6.98794 1.92128 6.43794 1.42133 5.7629 1.24642C5.63769 0.646377 5.08768 0.196289 4.43773 0.196289H1.43778C0.687742 0.196289 0.0627441 0.821287 0.0627441 1.57133C0.0627441 2.32137 0.687742 2.94637 1.43778 2.94637L1.43787 2.9464ZM18.1128 16.6213C18.8128 16.6213 19.4128 17.1963 19.4128 17.9214C19.4128 18.6214 18.8379 19.2214 18.1128 19.2214C17.3877 19.2213 16.8128 18.6214 16.8128 17.8963C16.8128 17.1963 17.3877 16.6213 18.1128 16.6213V16.6213ZM10.8628 16.6213C11.5628 16.6213 12.1629 17.1963 12.1629 17.9214C12.1629 18.6214 11.5879 19.2214 10.8628 19.2214C10.1379 19.2213 9.56297 18.6214 9.56297 17.8963C9.56297 17.1963 10.1379 16.6213 10.8628 16.6213V16.6213ZM19.0628 5.94639C19.6128 5.94639 20.0627 6.3963 20.0627 6.9463V11.1962C20.0627 11.7462 19.6128 12.1961 19.0628 12.1961L9.31284 12.1963H8.81289H8.76284L7.76293 5.94634L19.0628 5.94639ZM1.43787 1.19641H4.43781C4.63783 1.19641 4.81274 1.37149 4.81274 1.57133C4.81274 1.77135 4.63783 1.94643 4.43781 1.94643H1.43787C1.23785 1.94643 1.06294 1.77135 1.06294 1.57151C1.06277 1.37131 1.23785 1.19641 1.43787 1.19641Z" fill="#00FFE0"/>
</svg>
