<svg width="30" height="30" viewBox="0 0 30 30" fill="none" xmlns="http://www.w3.org/2000/svg">
<path d="M23.5539 16.32V16.8C23.5539 16.8857 23.5082 16.965 23.4339 17.0077L23.0183 17.2478C22.9807 17.2697 22.9395 17.2799 22.8986 17.2799C22.8156 17.2799 22.7351 17.2369 22.6906 17.1599C22.6243 17.0452 22.6636 16.8984 22.7784 16.8321L23.0739 16.6614V16.32C23.0739 16.1874 23.1812 16.0799 23.314 16.0799C23.4466 16.0799 23.5539 16.1874 23.5539 16.32V16.32ZM23.0739 13.4401C23.0739 13.5726 23.1812 13.6801 23.314 13.6801C23.4466 13.6801 23.5541 13.5726 23.5541 13.4401V12.4801C23.5541 12.3476 23.4468 12.2401 23.314 12.2401C23.1814 12.2401 23.0739 12.3476 23.0739 12.4801V13.4401ZM23.314 11.7599C23.4466 11.7599 23.5541 11.6525 23.5541 11.5199V10.5599C23.5541 10.4274 23.4468 10.3199 23.314 10.3199C23.1814 10.3199 23.0739 10.4274 23.0739 10.5599V11.5199C23.0739 11.6526 23.1812 11.7599 23.314 11.7599ZM23.434 6.99207L23.0185 6.752C22.9038 6.68537 22.757 6.72488 22.6906 6.83973C22.6243 6.9544 22.6636 7.10122 22.7785 7.16752L23.0739 7.33828V7.6798C23.0739 7.81239 23.1812 7.91986 23.314 7.91986C23.4466 7.91986 23.5541 7.81239 23.5541 7.6798V7.19984C23.5539 7.11412 23.5082 7.03477 23.434 6.99208L23.434 6.99207ZM18.6216 4.7677C18.6594 4.78946 18.7006 4.79984 18.7415 4.79984C18.8245 4.79984 18.905 4.75682 18.9496 4.67981C19.0159 4.56513 18.9765 4.41831 18.8617 4.35185L18.0303 3.8719C17.9158 3.80577 17.7688 3.84494 17.7025 3.95979C17.6363 4.07446 17.6756 4.22128 17.7904 4.28774L18.6216 4.7677ZM20.6123 5.63993C20.6786 5.52525 20.6392 5.37843 20.5244 5.31197L19.693 4.83202C19.5782 4.76555 19.4316 4.80489 19.3651 4.91991C19.2988 5.03458 19.3381 5.1814 19.453 5.24786L20.2843 5.72782C20.322 5.74958 20.3633 5.7598 20.404 5.7598C20.4871 5.7598 20.5678 5.71694 20.6123 5.63993L20.6123 5.63993ZM14.7044 2.8477L15.0002 2.67711L15.2961 2.84787C15.3337 2.86963 15.3751 2.87984 15.4158 2.87984C15.4988 2.87984 15.5793 2.83682 15.6238 2.75981C15.6901 2.64496 15.6508 2.49831 15.536 2.43185L15.1201 2.19178C15.0461 2.14893 14.9542 2.14893 14.88 2.19178L14.4642 2.43185C14.3497 2.49831 14.3102 2.64497 14.3766 2.75981C14.4429 2.87465 14.5899 2.91366 14.7044 2.8477L14.7044 2.8477ZM13.6332 2.91199C13.6362 2.91014 13.6397 2.91031 13.6429 2.90864C13.5833 2.7501 13.549 2.57917 13.549 2.39988C13.549 1.59965 14.2 0.948608 15.0002 0.948608C15.8005 0.948608 16.4515 1.59965 16.4515 2.39988C16.4515 2.57918 16.4174 2.7501 16.3576 2.90881C16.3608 2.91048 16.3643 2.91032 16.3673 2.91216L17.1986 3.39194C17.3135 3.45824 17.3528 3.60506 17.2865 3.7199C17.242 3.79691 17.1613 3.83993 17.0784 3.83993C17.0376 3.83993 16.9964 3.82955 16.9587 3.80779L16.1274 3.328C16.1245 3.32633 16.123 3.32348 16.1204 3.32181C15.9022 3.58599 15.5924 3.77065 15.2403 3.82958V6.6687C15.2403 6.80129 15.133 6.90876 15.0002 6.90876C14.8676 6.90876 14.7602 6.80129 14.7602 6.6687V3.82958C14.4081 3.77065 14.0981 3.586 13.8801 3.32164C13.8774 3.32331 13.8759 3.32616 13.8731 3.32783L13.0417 3.80779C13.004 3.82955 12.9629 3.83993 12.922 3.83993C12.839 3.83993 12.7584 3.79691 12.7139 3.7199C12.6476 3.60522 12.687 3.4584 12.8018 3.39194L13.6332 2.91199ZM14.0289 2.39989C14.0289 2.93543 14.4647 3.3712 15.0002 3.3712C15.5358 3.3712 15.9716 2.93543 15.9716 2.39989C15.9716 1.86434 15.5358 1.42857 15.0002 1.42857C14.4647 1.42857 14.0289 1.86434 14.0289 2.39989ZM10.6355 4.91993C10.5689 4.80492 10.4217 4.76557 10.3075 4.83204L9.4762 5.31199C9.36136 5.37829 9.32201 5.52511 9.38831 5.63995C9.43284 5.71696 9.51353 5.75998 9.5964 5.75998C9.63725 5.75998 9.67843 5.7496 9.7161 5.72784L10.5474 5.24788C10.6625 5.18142 10.7018 5.0346 10.6355 4.91993H10.6355ZM11.2591 4.79989C11.3 4.79989 11.3411 4.78951 11.3788 4.76775L12.2103 4.28779C12.3252 4.2215 12.3645 4.07468 12.2982 3.95984C12.2316 3.84499 12.0848 3.80582 11.9703 3.87195L11.1387 4.3519C11.0241 4.41837 10.9847 4.56502 11.051 4.67986C11.0956 4.75687 11.1762 4.79989 11.2591 4.79989H11.2591ZM6.68626 7.91994C6.81885 7.91994 6.92632 7.81246 6.92632 7.67987V7.33835L7.2218 7.16759C7.33665 7.10146 7.37599 6.95447 7.30969 6.8398C7.24306 6.72496 7.09624 6.68528 6.98174 6.75207L6.56623 6.99214C6.49189 7.035 6.44619 7.11419 6.44619 7.1999V7.67986C6.44636 7.81245 6.55367 7.91993 6.68626 7.91993L6.68626 7.91994ZM6.92632 10.5599C6.92632 10.4273 6.81901 10.3198 6.68626 10.3198C6.55366 10.3198 6.44619 10.4273 6.44619 10.5599V11.5198C6.44619 11.6524 6.5535 11.7598 6.68626 11.7598C6.81885 11.7598 6.92632 11.6524 6.92632 11.5198V10.5599ZM6.68626 12.24C6.55366 12.24 6.44619 12.3475 6.44619 12.48V13.44C6.44619 13.5726 6.5535 13.68 6.68626 13.68C6.81885 13.68 6.92632 13.5726 6.92632 13.44V12.48C6.92632 12.3473 6.81901 12.24 6.68626 12.24ZM7.2218 16.8321L6.92632 16.6614V16.32C6.92632 16.1874 6.81901 16.0799 6.68625 16.0799C6.55366 16.0799 6.44618 16.1874 6.44618 16.32V16.8C6.44618 16.8857 6.49189 16.965 6.56622 17.0077L6.98173 17.2478C7.01957 17.2697 7.06075 17.2799 7.1016 17.2799C7.18463 17.2799 7.26516 17.2369 7.30969 17.1599C7.37599 17.0452 7.33664 16.8984 7.2218 16.8321V16.8321ZM12.2099 19.7121L11.3786 19.2321C11.2639 19.1658 11.1171 19.2052 11.0508 19.32C10.9845 19.4347 11.0239 19.5815 11.1387 19.648L11.97 20.1279C12.0077 20.1497 12.0491 20.1599 12.0897 20.1599C12.1728 20.1599 12.2533 20.1169 12.2978 20.0399C12.3643 19.9252 12.3248 19.7784 12.2099 19.7121L12.2099 19.7121ZM8.97238 18.12C8.92785 18.197 8.84716 18.2401 8.76429 18.2401C8.72344 18.2401 8.68226 18.2297 8.64459 18.2079L7.81325 17.728C7.81057 17.7263 7.80906 17.7236 7.80639 17.7219C7.54004 18.045 7.13674 18.2513 6.6864 18.2513C5.88617 18.2513 5.23496 17.6003 5.23496 16.8C5.23496 16.081 5.76111 15.4842 6.4482 15.37C6.4482 15.3665 6.44636 15.3637 6.44636 15.36V14.4001C6.44636 14.2675 6.55367 14.16 6.68643 14.16C6.81902 14.16 6.92649 14.2675 6.92649 14.4001V15.36C6.92649 15.3635 6.92465 15.3665 6.92449 15.37C7.27672 15.4284 7.5871 15.6128 7.80541 15.8768L11.1322 13.9561C11.2465 13.8898 11.3935 13.929 11.4602 14.044C11.5265 14.1588 11.4871 14.3055 11.3723 14.3719L8.04462 16.2931C8.10355 16.4512 8.13754 16.6216 8.13754 16.8C8.13754 16.9793 8.10338 17.1503 8.04362 17.309C8.04663 17.3106 8.05015 17.3105 8.05316 17.3121L8.8845 17.7921C8.99935 17.8584 9.03869 18.0054 8.9724 18.1201L8.97238 18.12ZM7.65753 16.8C7.65753 16.2644 7.22176 15.8287 6.68621 15.8287C6.15067 15.8287 5.71507 16.2644 5.71507 16.8C5.71507 17.3355 6.15084 17.7713 6.68638 17.7713C7.22176 17.7713 7.65753 17.3355 7.65753 16.8V16.8ZM10.5474 18.7522L9.71604 18.2722C9.60136 18.2057 9.45454 18.2451 9.38809 18.3601C9.32179 18.4748 9.36113 18.6216 9.47598 18.6881L10.3073 19.168C10.3452 19.1896 10.3863 19.2 10.4272 19.2C10.5102 19.2 10.5907 19.157 10.6353 19.08C10.7016 18.9653 10.6622 18.8185 10.5474 18.7522H10.5474ZM15.296 21.1522L15.0001 21.3228L14.7043 21.152C14.5897 21.0857 14.4428 21.1249 14.3764 21.2399C14.3101 21.3547 14.3494 21.5014 14.4643 21.5678L14.8801 21.8079C14.9171 21.8293 14.9586 21.8401 15.0001 21.8401C15.0417 21.8401 15.0832 21.8293 15.1202 21.8079L15.536 21.5678C15.6507 21.5015 15.6902 21.3549 15.6238 21.2401C15.5573 21.125 15.4103 21.0857 15.296 21.1522H15.296ZM17.2865 20.2799C17.3528 20.3946 17.3134 20.5414 17.1986 20.6079L16.3672 21.0878C16.3642 21.0895 16.3609 21.0902 16.3577 21.0917C16.4173 21.2502 16.4514 21.421 16.4514 21.5999C16.4514 22.4002 15.8004 23.0512 15.0002 23.0512C14.1999 23.0512 13.5489 22.4002 13.5489 21.5999C13.5489 21.421 13.583 21.2501 13.6426 21.0917C13.6395 21.09 13.6361 21.0895 13.6331 21.0878L12.8018 20.6081C12.6869 20.5416 12.6476 20.3948 12.7139 20.2799C12.7802 20.1651 12.927 20.1256 13.0418 20.192L13.8732 20.6718C13.876 20.6735 13.8775 20.6764 13.8802 20.678C14.0982 20.4139 14.408 20.2292 14.7601 20.1703V17.8498C14.7601 17.7172 14.8674 17.6097 15.0002 17.6097C15.1327 17.6097 15.2402 17.7172 15.2402 17.8498V20.1703C15.5923 20.2292 15.9023 20.4138 16.1203 20.6782C16.123 20.6765 16.1245 20.6737 16.1273 20.672L16.9587 20.192C17.073 20.1256 17.2198 20.1651 17.2865 20.2799L17.2865 20.2799ZM15.9714 21.6C15.9714 21.0644 15.5357 20.6287 15.0001 20.6287C14.4646 20.6287 14.0288 21.0644 14.0288 21.6C14.0288 22.1355 14.4646 22.5713 15.0001 22.5713C15.5357 22.5713 15.9714 22.1355 15.9714 21.6ZM18.6214 19.2321L17.7899 19.7121C17.675 19.7784 17.6357 19.9252 17.702 20.04C17.7465 20.117 17.8272 20.1599 17.9101 20.1599C17.9509 20.1599 17.9921 20.1495 18.0298 20.1278L18.8613 19.6478C18.9761 19.5815 19.0155 19.4347 18.9492 19.3198C18.8827 19.2052 18.7355 19.1658 18.6214 19.2321H18.6214ZM20.2841 18.272L19.4528 18.752C19.3379 18.8185 19.2986 18.9653 19.3649 19.0799C19.4094 19.157 19.4901 19.2 19.573 19.2C19.6138 19.2 19.655 19.1896 19.6927 19.1678L20.524 18.6879C20.6388 18.6216 20.6782 18.4748 20.6119 18.3599C20.5456 18.2451 20.3984 18.2057 20.2841 18.272H20.2841ZM10.4707 12.2223C9.93213 11.684 9.63564 10.9679 9.63564 10.2064C9.63564 9.44479 9.93213 8.72878 10.4707 8.19024C11.5821 7.07878 13.3912 7.07861 14.5026 8.19024L14.9999 8.68759L15.4973 8.19024C16.6088 7.07878 18.4178 7.07861 19.5292 8.19024C20.0678 8.72861 20.3642 9.44479 20.3642 10.2064C20.3642 10.9679 20.0678 11.684 19.5292 12.2223L15.1771 16.5745C15.132 16.6195 15.0711 16.6448 15.0073 16.6448C14.9852 16.6448 14.9635 16.6418 14.9427 16.6359C14.8977 16.627 14.855 16.6068 14.8227 16.5745L10.4707 12.2223ZM10.1156 10.2064C10.1156 10.8397 10.3622 11.435 10.81 11.883L15 16.073L19.1899 11.883C19.6378 11.4352 19.8844 10.8397 19.8844 10.2064C19.8844 9.57289 19.6378 8.97756 19.1899 8.52958C18.2653 7.60498 16.7608 7.60549 15.8367 8.52958L15.1698 9.19652C15.076 9.29027 14.9242 9.29027 14.8304 9.19652L14.1635 8.52958C13.7013 8.06754 13.0941 7.83632 12.487 7.83632C11.8798 7.83632 11.2725 8.06735 10.8103 8.52958C10.3623 8.97756 10.1157 9.57289 10.1157 10.2064H10.1156ZM24.765 7.20002C24.765 7.91904 24.2389 8.51587 23.5518 8.63004C23.5518 8.63355 23.5536 8.6364 23.5536 8.64008V9.6C23.5536 9.73259 23.4463 9.84006 23.3136 9.84006C23.181 9.84006 23.0735 9.73259 23.0735 9.6V8.64008C23.0735 8.63657 23.0753 8.63355 23.0755 8.63004C22.7233 8.57161 22.4129 8.38729 22.1946 8.12329L20.8603 8.89374C20.8226 8.9155 20.7813 8.92588 20.7406 8.92588C20.6576 8.92588 20.577 8.88286 20.5325 8.80585C20.4662 8.691 20.5055 8.54435 20.6204 8.47789L21.9555 7.70698C21.8964 7.54894 21.8624 7.37851 21.8624 7.20006C21.8624 7.0211 21.8965 6.85017 21.956 6.69182C21.953 6.69031 21.9496 6.68964 21.9468 6.68797L21.1154 6.20801C21.0006 6.14171 20.9612 5.99473 21.0275 5.88006C21.0938 5.76504 21.2407 5.72587 21.3555 5.79216L22.1868 6.27212C22.1895 6.27379 22.191 6.27647 22.1937 6.27815C22.46 5.95504 22.8633 5.74878 23.3137 5.74878C24.1137 5.74878 24.765 6.39982 24.765 7.20005L24.765 7.20002ZM24.2849 7.20002C24.2849 6.66448 23.8491 6.22871 23.3136 6.22871C22.7782 6.22871 22.3424 6.66448 22.3424 7.20002C22.3424 7.73557 22.7782 8.17134 23.3137 8.17134C23.8493 8.17134 24.2849 7.73557 24.2849 7.20002V7.20002ZM24.765 16.8C24.765 17.6003 24.114 18.2513 23.3137 18.2513C22.8632 18.2513 22.4601 18.0449 22.1938 17.7219C22.1911 17.7236 22.1896 17.7264 22.1869 17.7279L21.3554 18.2079C21.3175 18.2297 21.2764 18.24 21.2355 18.24C21.1525 18.24 21.072 18.197 21.0274 18.12C20.9611 18.0052 21.0005 17.8585 21.1153 17.7921L21.9468 17.3121C21.9498 17.3104 21.9534 17.3104 21.9564 17.3089C21.8966 17.1502 21.8625 16.9793 21.8625 16.8C21.8625 16.6215 21.8964 16.4511 21.9557 16.2931L18.6532 14.3863C18.5383 14.32 18.499 14.1732 18.5653 14.0583C18.6316 13.9435 18.7786 13.9043 18.8932 13.9704L22.1949 15.8767C22.4132 15.6125 22.7236 15.4284 23.0758 15.37C23.0755 15.3665 23.0737 15.3636 23.0737 15.3599V14.4C23.0737 14.2674 23.181 14.1599 23.3137 14.1599C23.4463 14.1599 23.5538 14.2674 23.5538 14.4V15.3599C23.5538 15.3634 23.552 15.3665 23.5518 15.37C24.2388 15.4842 24.765 16.081 24.765 16.8L24.765 16.8ZM24.2849 16.8C24.2849 16.2645 23.8491 15.8287 23.3136 15.8287C22.7782 15.8287 22.3424 16.2645 22.3424 16.8C22.3424 17.3356 22.7782 17.7713 23.3137 17.7713C23.8493 17.7713 24.2849 17.3356 24.2849 16.8ZM5.23489 7.20002C5.23489 6.39979 5.88593 5.74875 6.68616 5.74875C7.13668 5.74875 7.53979 5.95517 7.80615 6.27812C7.80883 6.27645 7.81033 6.2736 7.81301 6.2721L8.64453 5.79214C8.75887 5.72584 8.90586 5.76502 8.97248 5.88003C9.03878 5.99487 8.99943 6.14153 8.88459 6.20799L8.05308 6.68794C8.05006 6.68962 8.04688 6.69012 8.04387 6.69179C8.1033 6.85016 8.13745 7.02109 8.13745 7.20004C8.13745 7.3785 8.10347 7.54892 8.0442 7.70712L9.29846 8.43132C9.4133 8.49762 9.45265 8.64444 9.38635 8.75928C9.34182 8.83629 9.26113 8.87931 9.17826 8.87931C9.13741 8.87931 9.09623 8.86893 9.05856 8.84717L7.80499 8.12344C7.58668 8.38745 7.2763 8.57177 6.92406 8.63018C6.92439 8.63353 6.92623 8.63638 6.92623 8.64006V9.59998C6.92623 9.73257 6.81892 9.84004 6.68617 9.84004C6.55357 9.84004 6.4461 9.73257 6.4461 9.59998V8.64006C6.4461 8.63654 6.44794 8.63353 6.44811 8.63002C5.76106 8.51584 5.23486 7.91902 5.23486 7.2L5.23489 7.20002ZM5.71502 7.20002C5.71502 7.73557 6.15079 8.17134 6.68633 8.17134C7.2217 8.17134 7.65748 7.73557 7.65748 7.20002C7.65748 6.66448 7.2217 6.22871 6.68616 6.22871C6.15062 6.22871 5.71502 6.66448 5.71502 7.20002Z" fill="#00FFE0"/>
</svg>
