<svg width="9" height="15" viewBox="0 0 9 15" fill="none" xmlns="http://www.w3.org/2000/svg">
<path fill-rule="evenodd" clip-rule="evenodd" d="M4.37169 0.937317C6.75562 0.937317 8.6979 2.8797 8.6979 5.26353C8.6979 6.85276 5.6076 12.6359 4.76887 14.3578C4.45982 15.1083 4.15084 15.1524 3.79768 14.3578C3.04715 12.636 0.0453186 6.80868 0.0453186 5.26353C0.0453186 2.8796 1.9877 0.937317 4.37153 0.937317H4.37169ZM4.37169 3.32125C5.34288 3.32125 6.13751 4.11588 6.13751 5.08707C6.13751 6.05826 5.34288 6.85289 4.37169 6.85289C3.4005 6.85289 2.60587 6.05826 2.60587 5.08707C2.60587 4.11588 3.4005 3.32125 4.37169 3.32125Z" fill="#00FFE0"/>
</svg>
