<svg width="75" height="75" viewBox="0 0 75 75" fill="none" xmlns="http://www.w3.org/2000/svg">
<path d="M14.6229 55.6521C14.3216 55.6521 14.0357 55.5383 13.8177 55.3324C13.0945 54.6514 12.532 53.8395 12.1444 52.9195C11.7611 52.0088 11.5677 51.0362 11.5702 50.0271V42.7238C11.5702 42.078 12.095 41.5519 12.7421 41.5519C13.3879 41.5519 13.9141 42.078 13.9141 42.7238V50.0267C13.9166 51.0382 14.179 51.9544 14.6959 52.75L38.4827 28.9814L34.7829 25.5713C34.5519 25.3604 34.4184 25.0707 34.4054 24.7581C34.3924 24.4451 34.5025 24.1462 34.7147 23.9169C34.9361 23.6766 35.2504 23.5385 35.5773 23.5385C35.8715 23.5385 36.154 23.6486 36.3708 23.8491L40.9679 28.0867C41.201 28.301 41.3395 28.6069 41.3454 28.9246C41.3525 29.241 41.2269 29.5528 41.0022 29.7767L15.4518 55.3088C15.2304 55.5294 14.9362 55.6512 14.6231 55.6512L14.6229 55.6521ZM12.742 39.5593C12.095 39.5593 11.5701 39.0332 11.5701 38.3874C11.5701 37.7416 12.0949 37.2154 12.742 37.2154C13.3878 37.2154 13.9139 37.7415 13.9139 38.3874C13.9139 39.0331 13.3879 39.5593 12.742 39.5593V39.5593ZM12.742 34.989C12.095 34.989 11.5701 34.4629 11.5701 33.8171V9.97992C11.5676 8.95914 11.7693 7.97142 12.1703 7.0456C12.5674 6.12568 13.1442 5.30667 13.8837 4.61056C14.1017 4.40297 14.3876 4.28955 14.6889 4.28955C14.9852 4.28955 15.2665 4.39962 15.4833 4.60009L29.8222 17.813C30.2968 18.2511 30.3274 18.994 29.8892 19.4699C29.6678 19.7089 29.3535 19.8474 29.0266 19.8474C28.7324 19.8474 28.4499 19.7374 28.2331 19.5369L14.7834 7.14152C14.2092 7.9723 13.9175 8.92738 13.9137 9.97995V33.8171C13.9137 34.4625 13.3877 34.9886 12.7418 34.9886L12.742 34.989ZM32.2152 22.7854C31.9198 22.7854 31.6385 22.6754 31.4217 22.4749C30.9458 22.0379 30.9153 21.2946 31.3539 20.8201C31.5753 20.5798 31.8896 20.4417 32.2165 20.4417C32.5107 20.4417 32.7932 20.5518 33.01 20.7523C33.4859 21.1904 33.5152 21.9325 33.0778 22.4079C32.8564 22.6486 32.5421 22.7854 32.2152 22.7854V22.7854Z" fill="#00FFE0"/>
<path d="M51.6621 40.71C51.3667 40.71 51.0846 40.5999 50.8678 40.3994L41.8573 32.0871L39.3813 29.8112C39.1469 29.5969 39.0088 29.2909 39.003 28.9733C38.9959 28.6556 39.1214 28.3438 39.3466 28.1203L48.8869 18.5859C49.107 18.3657 49.4025 18.2435 49.7164 18.2435C49.9131 18.2435 50.109 18.2938 50.281 18.3888L53.977 20.4278C54.542 20.7396 54.7492 21.4544 54.4366 22.0203C54.2302 22.394 53.8376 22.6263 53.4099 22.6263C53.2132 22.6263 53.0173 22.5761 52.8449 22.4798L49.9198 20.8672L41.8665 28.9134L43.444 30.3632L51.8345 38.1021L58.3547 34.4893C60.0845 33.5179 61.0805 31.8832 61.0864 30.0044C61.0852 28.8606 60.7081 27.785 59.9966 26.8918C59.83 26.6842 59.7388 26.4231 59.74 26.1569C59.7413 25.7995 59.9003 25.468 60.1795 25.2453C60.3892 25.0767 60.6424 24.9875 60.9107 24.9875C61.2693 24.9875 61.6033 25.1483 61.8272 25.4283C62.3416 26.0703 62.7413 26.7864 63.0142 27.5586C63.2908 28.3437 63.4314 29.1653 63.4302 30.0044C63.4335 31.3416 63.0681 32.6541 62.3721 33.7988C61.6841 34.9321 60.688 35.8789 59.4918 36.5384L52.2307 40.5626C52.0558 40.6597 51.8599 40.7099 51.662 40.7099L51.6621 40.71ZM57.2064 24.7211C57.0092 24.7211 56.8138 24.6708 56.6414 24.5746C56.3672 24.4235 56.168 24.1749 56.0814 23.874C55.9947 23.5739 56.0299 23.2575 56.181 22.9833C56.3873 22.6096 56.7811 22.3773 57.2076 22.3773C57.4043 22.3773 57.6002 22.4275 57.7735 22.5225C58.338 22.8343 58.5456 23.5492 58.233 24.115C58.0267 24.4892 57.6328 24.721 57.2064 24.721L57.2064 24.7211Z" fill="#00FFE0"/>
<path d="M40.1733 30.12C39.8791 30.12 39.5966 30.0099 39.3798 29.8095L13.8948 6.32267C13.6616 6.10838 13.5231 5.80369 13.5173 5.48603C13.5101 5.16837 13.6357 4.85782 13.8596 4.63308C14.3108 4.18525 14.8231 3.84541 15.2634 3.57254L15.2726 3.56668C16.5019 2.82504 17.8976 2.43332 19.3097 2.43332H19.3156C20.647 2.43332 21.9816 2.78362 23.1794 3.44699L23.1806 3.44824L27.7241 5.95271C28.29 6.26577 28.4963 6.97935 28.1845 7.54517C27.9782 7.91892 27.5844 8.15119 27.1566 8.15119C26.9608 8.15119 26.7653 8.10097 26.5916 8.00596L22.0435 5.49817C21.1797 5.02022 20.261 4.77747 19.3131 4.77747C18.3262 4.77747 17.3866 5.03863 16.5169 5.55342L40.1408 27.3248L47.7814 19.6888L34.3917 12.306C34.0201 12.1009 33.7882 11.7108 33.7849 11.2852C33.7836 11.0872 33.8342 10.8893 33.9313 10.7143C33.9431 10.6934 33.9548 10.6721 33.9677 10.6524C34.1833 10.3113 34.5537 10.1075 34.958 10.1075C35.1547 10.1075 35.3506 10.1577 35.523 10.254L50.2798 18.3893C50.6008 18.5664 50.8234 18.8886 50.8749 19.2519C50.9251 19.6139 50.8021 19.9856 50.5422 20.2447L41.0019 29.7779C40.7805 29.9985 40.4862 30.1203 40.1736 30.1203L40.1733 30.12ZM30.954 10.245C30.7581 10.245 30.5626 10.1948 30.3902 10.0985C30.1161 9.94742 29.9169 9.69881 29.8302 9.39789C29.7423 9.09781 29.7787 8.78015 29.9298 8.50727C30.1362 8.13227 30.5287 7.9004 30.9565 7.9004C31.1532 7.9004 31.3478 7.95062 31.5215 8.04689C31.7956 8.19798 31.9948 8.44658 32.0815 8.7475C32.1681 9.04759 32.1329 9.36399 31.9819 9.63813C31.7755 10.0119 31.3817 10.245 30.954 10.245H30.954Z" fill="#00FFE0"/>
<path d="M19.3104 57.5657H19.3058C17.8539 57.5657 16.4606 57.1778 15.277 56.4445C14.7346 56.1314 14.2353 55.7493 13.7946 55.3098C13.5732 55.0884 13.4514 54.7942 13.4514 54.4803C13.4514 54.1673 13.5732 53.8734 13.7946 53.652L18.4562 48.9938C18.6776 48.7737 18.9705 48.6514 19.2836 48.6514C19.5975 48.6514 19.8917 48.7732 20.1131 48.9946C20.3345 49.216 20.4563 49.5103 20.4555 49.8233C20.4555 50.1364 20.3337 50.4302 20.1123 50.6516L16.3845 54.3769C16.4092 54.3912 16.4339 54.4062 16.4594 54.4205L16.4979 54.4439C17.3253 54.9595 18.2708 55.2207 19.3104 55.222C20.2994 55.222 21.2368 54.9805 22.0233 54.5234L22.0467 54.5092L49.6724 39.296L41.856 32.0864L40.207 30.5713L26.4123 44.3553C26.4123 44.3565 26.4123 44.3565 26.4111 44.3565C26.1909 44.5779 25.8967 44.6997 25.5836 44.6997C25.2697 44.6997 24.9755 44.5779 24.7541 44.3565C24.7353 44.3377 24.7177 44.3189 24.7014 44.2992C24.6884 44.285 24.6754 44.2699 24.6629 44.2548C24.295 43.7886 24.3335 43.1193 24.7554 42.6988L39.345 28.1209C39.5664 27.8983 39.8606 27.7765 40.1733 27.7765C40.4663 27.7765 40.7488 27.8866 40.9656 28.087L43.4428 30.3638L52.4558 38.677C52.7324 38.9315 52.8705 39.3065 52.8249 39.6802C52.7793 40.0532 52.5554 40.3834 52.2273 40.565L23.1819 56.5593C22.0393 57.2181 20.7013 57.5658 19.3089 57.5658L19.3104 57.5657ZM22.3515 47.9295C22.0384 47.9295 21.7433 47.8077 21.5219 47.5859C21.3018 47.3645 21.1796 47.0703 21.1796 46.7576C21.1796 46.4446 21.3014 46.1504 21.5228 45.929C21.7442 45.7076 22.0384 45.5858 22.3515 45.5858C22.6645 45.5858 22.9583 45.7088 23.1801 45.9302C23.4015 46.1504 23.5233 46.4458 23.5233 46.7589C23.5233 47.072 23.4015 47.3658 23.1801 47.5876C22.9587 47.809 22.6645 47.9295 22.3515 47.9295Z" fill="#00FFE0"/>
</svg>
