<svg width="148" height="158" viewBox="0 0 148 158" fill="none" xmlns="http://www.w3.org/2000/svg">
<g clip-path="url(#clip0_2_289)">
<path d="M140.272 5.51887C137.582 2.78402 133.906 1.24808 130.072 1.26126L18.6726 1.03739C14.8472 1.02854 11.1746 2.54228 8.46203 5.23961C5.75164 7.93896 4.22454 11.605 4.21573 15.4302L3.73914 241.813C3.74795 245.64 5.26834 249.309 7.97016 252.017C10.6739 254.725 14.3378 256.255 18.163 256.27L129.561 256.492V256.494C133.393 256.518 137.075 255.013 139.79 252.308C142.505 249.607 144.026 245.93 144.018 242.101L144.494 15.7181C144.505 11.8884 142.984 8.21573 140.269 5.5185L140.272 5.51887ZM91.9424 9.20454C92.029 9.00522 92.1481 8.82339 92.2926 8.66378C92.9317 8.08541 93.9083 8.08541 94.5474 8.66378C94.6828 8.8322 94.8001 9.01167 94.8976 9.20454C94.9319 9.40399 94.9319 9.60804 94.8976 9.80749C94.9012 10.222 94.7405 10.6208 94.4535 10.92C94.143 11.2126 93.7349 11.3831 93.309 11.3965C92.4388 11.3788 91.7383 10.6784 91.7203 9.80749C91.7582 9.59463 91.834 9.39059 91.9424 9.20454ZM60.9311 8.22045H87.3027V8.21834C88.1801 8.21834 88.8914 8.92976 88.8914 9.80749C88.8914 10.685 88.1801 11.3965 87.3027 11.3965H60.9311H60.933C60.0555 11.3965 59.3443 10.685 59.3443 9.80749C59.3443 8.92976 60.0555 8.21834 60.933 8.21834L60.9311 8.22045ZM137.663 242.098C137.679 244.24 136.816 246.294 135.28 247.785C133.778 249.301 131.728 250.148 129.593 250.138L18.167 249.916L18.1647 249.913C16.0194 249.913 13.9626 249.059 12.4467 247.539C10.933 246.02 10.0863 243.958 10.0954 241.81L10.5717 15.427C10.5895 10.9832 14.1977 7.38839 18.6416 7.38839H33.8302C34.4153 10.0835 35.9046 12.4948 38.0478 14.228C40.1911 15.9635 42.8617 16.9122 45.6189 16.9211H102.714C105.426 16.912 108.055 15.9901 110.182 14.3078C112.307 12.6257 113.806 10.2786 114.438 7.64344H130.324C132.472 7.64344 134.529 8.49896 136.042 10.0195C137.559 11.5399 138.405 13.6009 138.396 15.7466L137.663 242.098Z" fill="#00FFE0"/>
</g>
<defs>
<clipPath id="clip0_2_289">
<rect width="148" height="158" fill="white"/>
</clipPath>
</defs>
</svg>
