<svg width="420" height="71" viewBox="0 0 420 71" fill="none" xmlns="http://www.w3.org/2000/svg">
<g filter="url(#filter0_i_1_2)">
<path d="M9.65655 64.4055C9.65576 64.4055 9.65412 64.4055 9.65333 64.4055C8.93733 64.4042 8.35794 63.8382 8.35957 63.1418L8.46382 21.4658C8.46545 20.7701 9.04642 20.2084 9.76079 20.2084C9.76158 20.2084 9.76321 20.2084 9.764 20.2084C10.48 20.2101 11.0594 20.7757 11.0578 21.4715L10.9535 63.1485C10.9519 63.843 10.3717 64.4055 9.65655 64.4055ZM36.0897 64.9558C35.3729 64.9558 34.7927 64.3921 34.7927 63.6952V43.1159L5.43085 6.0315L5.1275 63.2818C5.12402 63.9758 4.54382 64.5358 3.83109 64.5358C3.82891 64.5358 3.82664 64.5358 3.82414 64.5358C3.10826 64.5327 2.53056 63.9655 2.53404 63.2685L2.85695 2.34422C2.85953 1.80604 3.21396 1.32927 3.73897 1.15635C4.26358 0.984224 4.84346 1.15554 5.18115 1.58221L37.1168 41.9184C37.2913 42.139 37.3858 42.4089 37.3858 42.6869V63.6952C37.3858 64.3921 36.8057 64.9558 36.0897 64.9558ZM41.722 64.9558C41.0085 64.9558 40.4283 64.3952 40.4258 63.7L40.1883 1.51513C40.1858 0.819369 40.7644 0.252913 41.4804 0.250488C41.482 0.250488 41.4837 0.250488 41.4852 0.250488C42.1988 0.250488 42.779 0.811297 42.7822 1.50625L43.019 63.6903C43.0214 64.3873 42.4437 64.9533 41.7269 64.9558C41.7252 64.9558 41.7237 64.9558 41.722 64.9558Z" fill="url(#paint0_linear_1_2)"/>
</g>
<g filter="url(#filter1_i_1_2)">
<path d="M61.2325 4.33938C56.8275 4.33938 53.2445 7.51434 53.2445 11.4165V54.4079C53.2445 58.3102 56.8275 61.4853 61.2325 61.4853H83.0392C87.444 61.4853 91.0271 58.3102 91.0271 54.4079V11.4165C91.0271 7.51434 87.444 4.33938 83.0392 4.33938H61.2325ZM83.0392 64.0065H61.2325C55.259 64.0065 50.3992 59.7 50.3992 54.4079V11.4165C50.3992 6.12441 55.259 1.81818 61.2325 1.81818H83.0392C89.0125 1.81818 93.8725 6.12441 93.8725 11.4165V54.4079C93.8725 59.7 89.0125 64.0065 83.0392 64.0065Z" fill="url(#paint1_linear_1_2)"/>
</g>
<g filter="url(#filter2_i_1_2)">
<path d="M160.791 4.33938C156.386 4.33938 152.803 7.51434 152.803 11.4165V54.4079C152.803 58.3102 156.386 61.4853 160.791 61.4853H182.597C187.002 61.4853 190.585 58.3102 190.585 54.4079V11.4165C190.585 7.51434 187.002 4.33938 182.597 4.33938H160.791ZM182.597 64.0065H160.791C154.817 64.0065 149.957 59.7 149.957 54.4079V11.4165C149.957 6.12441 154.817 1.81818 160.791 1.81818H182.597C188.571 1.81818 193.431 6.12441 193.431 11.4165V54.4079C193.431 59.7 188.571 64.0065 182.597 64.0065Z" fill="url(#paint2_linear_1_2)"/>
</g>
<g filter="url(#filter3_i_1_2)">
<path d="M122.711 40.9102C122.573 40.9102 122.435 40.8827 122.299 40.8253C121.703 40.5724 121.404 39.8298 121.632 39.1663L133.951 3.25119C134.178 2.58856 134.846 2.25563 135.442 2.50936C136.038 2.7623 136.336 3.50492 136.11 4.16755L123.79 40.0827C123.614 40.595 123.175 40.9102 122.711 40.9102ZM121.915 63.1691C121.915 63.1691 121.915 63.1691 121.914 63.1691C121.435 63.1691 121.005 62.8382 120.835 62.3394L101.328 5.10654C101.102 4.4423 101.403 3.70048 101.999 3.44916C102.595 3.19704 103.262 3.53159 103.488 4.19502L121.918 58.2677L140.343 4.48108C140.569 3.81765 141.238 3.48552 141.833 3.73764C142.429 3.99058 142.729 4.7332 142.501 5.39583L122.995 62.3424C122.824 62.84 122.394 63.1691 121.915 63.1691Z" fill="url(#paint3_linear_1_2)"/>
</g>
<g filter="url(#filter4_i_1_2)">
<path d="M207.03 63.4334C207.028 63.4334 207.026 63.4334 207.023 63.4334C206.374 63.4292 205.85 62.8619 205.854 62.1649L206.05 25.8209C206.054 25.1276 206.58 24.5676 207.226 24.5676C207.228 24.5676 207.23 24.5676 207.233 24.5676C207.882 24.5717 208.406 25.1397 208.402 25.8355L208.205 62.1801C208.202 62.874 207.676 63.4334 207.03 63.4334ZM229.485 64.7504C228.837 64.7504 228.31 64.1861 228.31 63.4904V43.2302C228.31 43.0153 228.362 42.8044 228.459 42.6169L249.957 1.25362C250.217 0.751798 250.762 0.50212 251.28 0.646767C251.798 0.791416 252.16 1.29241 252.16 1.86696V62.6461C252.16 63.3425 251.633 63.9067 250.985 63.9067C250.335 63.9067 249.808 63.3425 249.808 62.6461V6.71951L230.662 43.5575V63.4904C230.662 64.1861 230.135 64.7504 229.485 64.7504ZM222.701 64.8861C222.052 64.8861 221.525 64.3219 221.525 63.6255V43.6828L203.162 7.01605V62.7819C203.162 63.4776 202.636 64.0425 201.987 64.0425C201.337 64.0425 200.811 63.4776 200.811 62.7819V2.00271C200.811 1.42493 201.177 0.920701 201.7 0.780095C202.222 0.638676 202.768 0.897265 203.022 1.40636L223.737 42.7696C223.829 42.9531 223.877 43.1583 223.877 43.366V63.6255C223.877 64.3219 223.351 64.8861 222.701 64.8861Z" fill="url(#paint4_linear_1_2)"/>
</g>
<g filter="url(#filter5_i_1_2)">
<path d="M265.564 26.244C264.919 26.244 264.397 25.7033 264.397 25.0359V8.71272C264.397 8.04606 264.919 7.50545 265.564 7.50545C266.208 7.50545 266.73 8.04606 266.73 8.71272V25.0359C266.73 25.7033 266.208 26.244 265.564 26.244ZM260.707 32.5874C260.398 32.5874 260.102 32.4605 259.883 32.2351C259.664 32.0088 259.541 31.7009 259.541 31.3793V3.63152C259.541 2.96485 260.062 2.42426 260.707 2.42426H294.721C295.364 2.42426 295.887 2.96485 295.887 3.63152C295.887 4.29899 295.364 4.83958 294.721 4.83958H261.873V30.168L286.084 30.0807C286.084 30.0807 286.086 30.0807 286.088 30.0807C286.73 30.0807 287.252 30.6189 287.254 31.2848C287.256 31.9514 286.736 32.4944 286.092 32.4961L260.711 32.5874C260.709 32.5874 260.709 32.5874 260.707 32.5874ZM265.953 58.8896C265.309 58.8896 264.786 58.349 264.786 57.6823V41.3591C264.786 40.6924 265.309 40.1518 265.953 40.1518C266.597 40.1518 267.119 40.6924 267.119 41.3591V57.6823C267.119 58.349 266.597 58.8896 265.953 58.8896ZM294.721 64.4168H260.707C260.062 64.4168 259.541 63.8762 259.541 63.2095V35.4617C259.541 35.1409 259.664 34.8331 259.883 34.606C260.102 34.3805 260.398 34.2545 260.707 34.2545C260.709 34.2545 260.709 34.2545 260.711 34.2545L286.092 34.345C286.736 34.3474 287.256 34.8896 287.254 35.5563C287.252 36.2221 286.73 36.7603 286.088 36.7603C286.086 36.7603 286.084 36.7603 286.084 36.7603L261.873 36.6739V62.0017H294.721C295.364 62.0017 295.887 62.5429 295.887 63.2095C295.887 63.8762 295.364 64.4168 294.721 64.4168Z" fill="url(#paint5_linear_1_2)"/>
</g>
<g filter="url(#filter6_i_1_2)">
<path d="M310.541 27.8844C309.808 27.8844 309.213 27.3341 309.213 26.6553V8.90257C309.213 8.22379 309.808 7.67348 310.541 7.67348C311.275 7.67348 311.869 8.22379 311.869 8.90257V26.6553C311.869 27.3341 311.275 27.8844 310.541 27.8844ZM305.924 30.4791H334.026C338.136 30.4791 341.481 27.3834 341.481 23.5789V12.3886C341.481 8.58342 338.136 5.48845 334.026 5.48845H305.924V30.4791ZM334.026 32.9373H304.595C303.862 32.9373 303.267 32.387 303.267 31.7082V4.25936C303.267 3.58058 303.862 3.03027 304.595 3.03027H334.026C339.6 3.03027 344.136 7.22827 344.136 12.3886V23.5789C344.136 28.7393 339.6 32.9373 334.026 32.9373ZM310.837 60.7957C310.103 60.7957 309.509 60.2455 309.509 59.5667V41.8133C309.509 41.1345 310.103 40.5842 310.837 40.5842C311.57 40.5842 312.164 41.1345 312.164 41.8133V59.5667C312.164 60.2455 311.57 60.7957 310.837 60.7957ZM304.595 64.4823C303.862 64.4823 303.267 63.9326 303.267 63.2532V35.8052C303.267 35.1256 303.862 34.5761 304.595 34.5761H334.026C339.6 34.5761 344.136 38.774 344.136 43.9337L344.327 62.6956C344.335 63.3744 343.746 63.9296 343.013 63.9363C343.008 63.9363 343.004 63.9363 343 63.9363C342.272 63.9363 341.679 63.3938 341.672 62.7193L341.481 43.9458C341.481 40.1292 338.136 37.0334 334.026 37.0334H305.924V63.2532C305.924 63.9326 305.329 64.4823 304.595 64.4823Z" fill="url(#paint6_linear_1_2)"/>
</g>
<g filter="url(#filter7_i_1_2)">
<path d="M389.609 24.0073C388.965 24.0073 388.443 23.4585 388.443 22.7822V3.04319C388.443 2.36602 388.965 1.81818 389.609 1.81818C390.253 1.81818 390.775 2.36602 390.775 3.04319V22.7822C390.775 23.4585 390.253 24.0073 389.609 24.0073ZM383.491 64.3224H360.093C355.469 64.3224 351.708 60.1373 351.708 54.994V11.1709C351.708 6.02744 355.469 1.8424 360.093 1.8424L384.535 2.04604C385.175 2.0517 385.691 2.59878 385.691 3.2711V22.2602C385.691 22.9373 385.169 23.4861 384.525 23.4861C383.882 23.4861 383.359 22.9373 383.359 22.2602V4.48725L360.083 4.29249C356.756 4.29249 354.04 7.37775 354.04 11.1709V54.994C354.04 58.7863 356.756 61.8721 360.093 61.8721H383.491C386.829 61.8721 389.545 58.7863 389.545 54.994L389.566 47.7576C389.568 47.082 390.09 46.5366 390.732 46.5366C390.733 46.5366 390.735 46.5366 390.736 46.5366C391.38 46.5382 391.901 47.0884 391.899 47.7656L391.877 54.998C391.877 60.1373 388.115 64.3224 383.491 64.3224Z" fill="url(#paint7_linear_1_2)"/>
</g>
<defs>
<filter id="filter0_i_1_2" x="2.53403" y="0.250488" width="40.485" height="68.7053" filterUnits="userSpaceOnUse" color-interpolation-filters="sRGB">
<feFlood flood-opacity="0" result="BackgroundImageFix"/>
<feBlend mode="normal" in="SourceGraphic" in2="BackgroundImageFix" result="shape"/>
<feColorMatrix in="SourceAlpha" type="matrix" values="0 0 0 0 0 0 0 0 0 0 0 0 0 0 0 0 0 0 127 0" result="hardAlpha"/>
<feOffset dy="4"/>
<feGaussianBlur stdDeviation="2"/>
<feComposite in2="hardAlpha" operator="arithmetic" k2="-1" k3="1"/>
<feColorMatrix type="matrix" values="0 0 0 0 0 0 0 0 0 0 0 0 0 0 0 0 0 0 0.25 0"/>
<feBlend mode="normal" in2="shape" result="effect1_innerShadow_1_2"/>
</filter>
<filter id="filter1_i_1_2" x="50.3992" y="1.81818" width="43.4733" height="66.1883" filterUnits="userSpaceOnUse" color-interpolation-filters="sRGB">
<feFlood flood-opacity="0" result="BackgroundImageFix"/>
<feBlend mode="normal" in="SourceGraphic" in2="BackgroundImageFix" result="shape"/>
<feColorMatrix in="SourceAlpha" type="matrix" values="0 0 0 0 0 0 0 0 0 0 0 0 0 0 0 0 0 0 127 0" result="hardAlpha"/>
<feOffset dy="4"/>
<feGaussianBlur stdDeviation="2"/>
<feComposite in2="hardAlpha" operator="arithmetic" k2="-1" k3="1"/>
<feColorMatrix type="matrix" values="0 0 0 0 0 0 0 0 0 0 0 0 0 0 0 0 0 0 0.25 0"/>
<feBlend mode="normal" in2="shape" result="effect1_innerShadow_1_2"/>
</filter>
<filter id="filter2_i_1_2" x="149.957" y="1.81818" width="43.4733" height="66.1883" filterUnits="userSpaceOnUse" color-interpolation-filters="sRGB">
<feFlood flood-opacity="0" result="BackgroundImageFix"/>
<feBlend mode="normal" in="SourceGraphic" in2="BackgroundImageFix" result="shape"/>
<feColorMatrix in="SourceAlpha" type="matrix" values="0 0 0 0 0 0 0 0 0 0 0 0 0 0 0 0 0 0 127 0" result="hardAlpha"/>
<feOffset dy="4"/>
<feGaussianBlur stdDeviation="2"/>
<feComposite in2="hardAlpha" operator="arithmetic" k2="-1" k3="1"/>
<feColorMatrix type="matrix" values="0 0 0 0 0 0 0 0 0 0 0 0 0 0 0 0 0 0 0.25 0"/>
<feBlend mode="normal" in2="shape" result="effect1_innerShadow_1_2"/>
</filter>
<filter id="filter3_i_1_2" x="101.253" y="2.42426" width="41.3243" height="64.7448" filterUnits="userSpaceOnUse" color-interpolation-filters="sRGB">
<feFlood flood-opacity="0" result="BackgroundImageFix"/>
<feBlend mode="normal" in="SourceGraphic" in2="BackgroundImageFix" result="shape"/>
<feColorMatrix in="SourceAlpha" type="matrix" values="0 0 0 0 0 0 0 0 0 0 0 0 0 0 0 0 0 0 127 0" result="hardAlpha"/>
<feOffset dy="4"/>
<feGaussianBlur stdDeviation="2"/>
<feComposite in2="hardAlpha" operator="arithmetic" k2="-1" k3="1"/>
<feColorMatrix type="matrix" values="0 0 0 0 0 0 0 0 0 0 0 0 0 0 0 0 0 0 0.25 0"/>
<feBlend mode="normal" in2="shape" result="effect1_innerShadow_1_2"/>
</filter>
<filter id="filter4_i_1_2" x="200.811" y="0.606049" width="51.3497" height="68.2801" filterUnits="userSpaceOnUse" color-interpolation-filters="sRGB">
<feFlood flood-opacity="0" result="BackgroundImageFix"/>
<feBlend mode="normal" in="SourceGraphic" in2="BackgroundImageFix" result="shape"/>
<feColorMatrix in="SourceAlpha" type="matrix" values="0 0 0 0 0 0 0 0 0 0 0 0 0 0 0 0 0 0 127 0" result="hardAlpha"/>
<feOffset dy="4"/>
<feGaussianBlur stdDeviation="2"/>
<feComposite in2="hardAlpha" operator="arithmetic" k2="-1" k3="1"/>
<feColorMatrix type="matrix" values="0 0 0 0 0 0 0 0 0 0 0 0 0 0 0 0 0 0 0.25 0"/>
<feBlend mode="normal" in2="shape" result="effect1_innerShadow_1_2"/>
</filter>
<filter id="filter5_i_1_2" x="259.541" y="2.42426" width="36.3466" height="65.9926" filterUnits="userSpaceOnUse" color-interpolation-filters="sRGB">
<feFlood flood-opacity="0" result="BackgroundImageFix"/>
<feBlend mode="normal" in="SourceGraphic" in2="BackgroundImageFix" result="shape"/>
<feColorMatrix in="SourceAlpha" type="matrix" values="0 0 0 0 0 0 0 0 0 0 0 0 0 0 0 0 0 0 127 0" result="hardAlpha"/>
<feOffset dy="4"/>
<feGaussianBlur stdDeviation="2"/>
<feComposite in2="hardAlpha" operator="arithmetic" k2="-1" k3="1"/>
<feColorMatrix type="matrix" values="0 0 0 0 0 0 0 0 0 0 0 0 0 0 0 0 0 0 0.25 0"/>
<feBlend mode="normal" in2="shape" result="effect1_innerShadow_1_2"/>
</filter>
<filter id="filter6_i_1_2" x="303.267" y="3.03027" width="41.06" height="65.452" filterUnits="userSpaceOnUse" color-interpolation-filters="sRGB">
<feFlood flood-opacity="0" result="BackgroundImageFix"/>
<feBlend mode="normal" in="SourceGraphic" in2="BackgroundImageFix" result="shape"/>
<feColorMatrix in="SourceAlpha" type="matrix" values="0 0 0 0 0 0 0 0 0 0 0 0 0 0 0 0 0 0 127 0" result="hardAlpha"/>
<feOffset dy="4"/>
<feGaussianBlur stdDeviation="2"/>
<feComposite in2="hardAlpha" operator="arithmetic" k2="-1" k3="1"/>
<feColorMatrix type="matrix" values="0 0 0 0 0 0 0 0 0 0 0 0 0 0 0 0 0 0 0.25 0"/>
<feBlend mode="normal" in2="shape" result="effect1_innerShadow_1_2"/>
</filter>
<filter id="filter7_i_1_2" x="351.708" y="1.81818" width="40.1909" height="66.5043" filterUnits="userSpaceOnUse" color-interpolation-filters="sRGB">
<feFlood flood-opacity="0" result="BackgroundImageFix"/>
<feBlend mode="normal" in="SourceGraphic" in2="BackgroundImageFix" result="shape"/>
<feColorMatrix in="SourceAlpha" type="matrix" values="0 0 0 0 0 0 0 0 0 0 0 0 0 0 0 0 0 0 127 0" result="hardAlpha"/>
<feOffset dy="4"/>
<feGaussianBlur stdDeviation="2"/>
<feComposite in2="hardAlpha" operator="arithmetic" k2="-1" k3="1"/>
<feColorMatrix type="matrix" values="0 0 0 0 0 0 0 0 0 0 0 0 0 0 0 0 0 0 0.25 0"/>
<feBlend mode="normal" in2="shape" result="effect1_innerShadow_1_2"/>
</filter>
<linearGradient id="paint0_linear_1_2" x1="2.534" y1="32.6033" x2="43.019" y2="32.6033" gradientUnits="userSpaceOnUse">
<stop offset="0.0001" stop-color="#FA00FF"/>
<stop offset="0.0002" stop-color="#FA00FF"/>
<stop offset="0.0003" stop-color="#FA00FF"/>
<stop offset="0.0004" stop-color="#FA00FF"/>
<stop offset="0.0005" stop-color="#FF00A8"/>
<stop offset="0.9997" stop-color="#00FFE0"/>
<stop offset="0.9998" stop-color="#00FFE0"/>
<stop offset="0.9999" stop-color="#00FFE0"/>
<stop offset="1" stop-color="#00FFE0"/>
</linearGradient>
<linearGradient id="paint1_linear_1_2" x1="50.3992" y1="32.9123" x2="93.8725" y2="32.9123" gradientUnits="userSpaceOnUse">
<stop offset="0.0001" stop-color="#FA00FF"/>
<stop offset="0.0002" stop-color="#FA00FF"/>
<stop offset="0.0003" stop-color="#FA00FF"/>
<stop offset="0.0004" stop-color="#FA00FF"/>
<stop offset="0.0005" stop-color="#FF00A8"/>
<stop offset="0.9997" stop-color="#00FFE0"/>
<stop offset="0.9998" stop-color="#00FFE0"/>
<stop offset="0.9999" stop-color="#00FFE0"/>
<stop offset="1" stop-color="#00FFE0"/>
</linearGradient>
<linearGradient id="paint2_linear_1_2" x1="149.957" y1="32.9123" x2="193.431" y2="32.9123" gradientUnits="userSpaceOnUse">
<stop offset="0.0001" stop-color="#FA00FF"/>
<stop offset="0.0002" stop-color="#FA00FF"/>
<stop offset="0.0003" stop-color="#FA00FF"/>
<stop offset="0.0004" stop-color="#FA00FF"/>
<stop offset="0.0005" stop-color="#FF00A8"/>
<stop offset="0.9997" stop-color="#00FFE0"/>
<stop offset="0.9998" stop-color="#00FFE0"/>
<stop offset="0.9999" stop-color="#00FFE0"/>
<stop offset="1" stop-color="#00FFE0"/>
</linearGradient>
<linearGradient id="paint3_linear_1_2" x1="101.253" y1="32.7967" x2="142.577" y2="32.7967" gradientUnits="userSpaceOnUse">
<stop offset="0.0001" stop-color="#FA00FF"/>
<stop offset="0.0002" stop-color="#FA00FF"/>
<stop offset="0.0003" stop-color="#FA00FF"/>
<stop offset="0.0004" stop-color="#FA00FF"/>
<stop offset="0.0005" stop-color="#FF00A8"/>
<stop offset="0.9997" stop-color="#00FFE0"/>
<stop offset="0.9998" stop-color="#00FFE0"/>
<stop offset="0.9999" stop-color="#00FFE0"/>
<stop offset="1" stop-color="#00FFE0"/>
</linearGradient>
<linearGradient id="paint4_linear_1_2" x1="200.811" y1="32.7461" x2="252.16" y2="32.7461" gradientUnits="userSpaceOnUse">
<stop offset="0.0001" stop-color="#FA00FF"/>
<stop offset="0.0002" stop-color="#FA00FF"/>
<stop offset="0.0003" stop-color="#FA00FF"/>
<stop offset="0.0004" stop-color="#FA00FF"/>
<stop offset="0.0005" stop-color="#FF00A8"/>
<stop offset="0.9997" stop-color="#00FFE0"/>
<stop offset="0.9998" stop-color="#00FFE0"/>
<stop offset="0.9999" stop-color="#00FFE0"/>
<stop offset="1" stop-color="#00FFE0"/>
</linearGradient>
<linearGradient id="paint5_linear_1_2" x1="259.541" y1="33.4207" x2="295.887" y2="33.4207" gradientUnits="userSpaceOnUse">
<stop offset="0.0001" stop-color="#FA00FF"/>
<stop offset="0.0002" stop-color="#FA00FF"/>
<stop offset="0.0003" stop-color="#FA00FF"/>
<stop offset="0.0004" stop-color="#FA00FF"/>
<stop offset="0.0005" stop-color="#FF00A8"/>
<stop offset="0.9997" stop-color="#00FFE0"/>
<stop offset="0.9998" stop-color="#00FFE0"/>
<stop offset="0.9999" stop-color="#00FFE0"/>
<stop offset="1" stop-color="#00FFE0"/>
</linearGradient>
<linearGradient id="paint6_linear_1_2" x1="303.267" y1="33.7564" x2="344.327" y2="33.7564" gradientUnits="userSpaceOnUse">
<stop offset="0.0001" stop-color="#FA00FF"/>
<stop offset="0.0002" stop-color="#FA00FF"/>
<stop offset="0.0003" stop-color="#FA00FF"/>
<stop offset="0.0004" stop-color="#FA00FF"/>
<stop offset="0.0005" stop-color="#FF00A8"/>
<stop offset="0.9997" stop-color="#00FFE0"/>
<stop offset="0.9998" stop-color="#00FFE0"/>
<stop offset="0.9999" stop-color="#00FFE0"/>
<stop offset="1" stop-color="#00FFE0"/>
</linearGradient>
<linearGradient id="paint7_linear_1_2" x1="351.708" y1="33.0704" x2="391.899" y2="33.0704" gradientUnits="userSpaceOnUse">
<stop offset="0.0001" stop-color="#FA00FF"/>
<stop offset="0.0002" stop-color="#FA00FF"/>
<stop offset="0.0003" stop-color="#FA00FF"/>
<stop offset="0.0004" stop-color="#FA00FF"/>
<stop offset="0.0005" stop-color="#FF00A8"/>
<stop offset="0.9997" stop-color="#00FFE0"/>
<stop offset="0.9998" stop-color="#00FFE0"/>
<stop offset="0.9999" stop-color="#00FFE0"/>
<stop offset="1" stop-color="#00FFE0"/>
</linearGradient>
</defs>
</svg>
