<svg width="120" height="21" viewBox="0 0 120 21" fill="none" xmlns="http://www.w3.org/2000/svg">
<g filter="url(#filter0_i_2_259)">
<path d="M2.759 18.4016C2.75878 18.4016 2.75831 18.4016 2.75809 18.4016C2.55351 18.4012 2.38798 18.2395 2.38844 18.0404L2.41823 6.13305C2.4187 5.93429 2.58468 5.77379 2.78879 5.77379C2.78902 5.77379 2.78948 5.77379 2.7897 5.77379C2.99428 5.77429 3.15982 5.93589 3.15937 6.13469L3.12956 18.0423C3.12911 18.2407 2.96334 18.4016 2.759 18.4016ZM10.3113 18.5588C10.1065 18.5588 9.94076 18.3977 9.94076 18.1987V12.3188L1.55166 1.72325L1.46499 18.0804C1.464 18.2788 1.29823 18.4388 1.09459 18.4388C1.09397 18.4388 1.09332 18.4388 1.0926 18.4388C0.888068 18.4379 0.72301 18.2758 0.724003 18.0768L0.816264 0.669741C0.817002 0.515977 0.918268 0.379756 1.06827 0.330351C1.21816 0.281172 1.38384 0.330119 1.48032 0.452025L10.6048 11.9767C10.6546 12.0397 10.6817 12.1168 10.6817 12.1962V18.1987C10.6817 18.3977 10.5159 18.5588 10.3113 18.5588ZM11.9206 18.5588C11.7167 18.5588 11.5509 18.3987 11.5502 18.2L11.4824 0.43286C11.4817 0.234071 11.647 0.072226 11.8515 0.0715332C11.852 0.0715332 11.8525 0.0715332 11.8529 0.0715332C12.0568 0.0715332 12.2226 0.231764 12.2235 0.430322L12.2911 18.1972C12.2918 18.3963 12.1268 18.558 11.922 18.5588C11.9215 18.5588 11.921 18.5588 11.9206 18.5588Z" fill="url(#paint0_linear_2_259)"/>
</g>
<g filter="url(#filter1_i_2_259)">
<path d="M17.4951 1.23975C16.2365 1.23975 15.2127 2.14689 15.2127 3.26178V15.545C15.2127 16.66 16.2365 17.5672 17.4951 17.5672H23.7255C24.984 17.5672 26.0077 16.66 26.0077 15.545V3.26178C26.0077 2.14689 24.984 1.23975 23.7255 1.23975H17.4951ZM23.7255 18.2875H17.4951C15.7883 18.2875 14.3998 17.0571 14.3998 15.545V3.26178C14.3998 1.74977 15.7883 0.519409 17.4951 0.519409H23.7255C25.4322 0.519409 26.8207 1.74977 26.8207 3.26178V15.545C26.8207 17.0571 25.4322 18.2875 23.7255 18.2875Z" fill="url(#paint1_linear_2_259)"/>
</g>
<g filter="url(#filter2_i_2_259)">
<path d="M45.9403 1.23975C44.6817 1.23975 43.6581 2.14689 43.6581 3.26178V15.545C43.6581 16.66 44.6817 17.5672 45.9403 17.5672H52.1706C53.4291 17.5672 54.4528 16.66 54.4528 15.545V3.26178C54.4528 2.14689 53.4291 1.23975 52.1706 1.23975H45.9403ZM52.1706 18.2875H45.9403C44.2334 18.2875 42.8448 17.0571 42.8448 15.545V3.26178C42.8448 1.74977 44.2334 0.519409 45.9403 0.519409H52.1706C53.8774 0.519409 55.2661 1.74977 55.2661 3.26178V15.545C55.2661 17.0571 53.8774 18.2875 52.1706 18.2875Z" fill="url(#paint2_linear_2_259)"/>
</g>
<g filter="url(#filter3_i_2_259)">
<path d="M35.0603 11.6886C35.0208 11.6886 34.9814 11.6808 34.9426 11.6644C34.7723 11.5921 34.6869 11.3799 34.752 11.1904L38.2717 0.928895C38.3366 0.739572 38.5274 0.644449 38.6978 0.716943C38.868 0.789212 38.9531 1.00139 38.8886 1.19071L35.3686 11.4522C35.3182 11.5986 35.1928 11.6886 35.0603 11.6886ZM34.8328 18.0483C34.8328 18.0483 34.8328 18.0483 34.8326 18.0483C34.6957 18.0483 34.5728 17.9537 34.5243 17.8113L28.9509 1.45899C28.8862 1.26921 28.9723 1.05726 29.1426 0.985457C29.3128 0.913423 29.5034 1.00901 29.568 1.19856L34.8338 16.648L40.0981 1.28029C40.1626 1.09074 40.3538 0.995845 40.5237 1.06788C40.6941 1.14015 40.7797 1.35233 40.7146 1.54165L35.1414 17.8121C35.0926 17.9542 34.9698 18.0483 34.8328 18.0483Z" fill="url(#paint3_linear_2_259)"/>
</g>
<g filter="url(#filter4_i_2_259)">
<path d="M59.1514 18.1238C59.1509 18.1238 59.1503 18.1238 59.1495 18.1238C58.964 18.1225 58.8143 17.9604 58.8154 17.7614L58.8714 7.37734C58.8727 7.17925 59.0229 7.01925 59.2074 7.01925C59.208 7.01925 59.2085 7.01925 59.2095 7.01925C59.3949 7.02043 59.5445 7.1827 59.5434 7.3815L59.4872 17.7657C59.4863 17.9639 59.336 18.1238 59.1514 18.1238ZM65.5672 18.5001C65.3819 18.5001 65.2314 18.3388 65.2314 18.1401V12.3514C65.2314 12.29 65.2463 12.2298 65.2739 12.1762L71.4163 0.358116C71.4906 0.214738 71.6463 0.143401 71.7943 0.18473C71.9423 0.226058 72.0458 0.369199 72.0458 0.533356V17.8988C72.0458 18.0979 71.8952 18.259 71.7099 18.259C71.5243 18.259 71.3738 18.0979 71.3738 17.8988V1.91979L65.9034 12.4449V18.1401C65.9034 18.3388 65.7528 18.5001 65.5672 18.5001ZM63.6288 18.5388C63.4434 18.5388 63.2928 18.3776 63.2928 18.1787V12.4807L58.0463 2.00453V17.9376C58.0463 18.1364 57.896 18.2979 57.7106 18.2979C57.5248 18.2979 57.3746 18.1364 57.3746 17.9376V0.572141C57.3746 0.407061 57.4792 0.262996 57.6285 0.222823C57.7778 0.182418 57.9338 0.2563 58.0063 0.401756L63.9248 12.2198C63.9512 12.2723 63.9648 12.3309 63.9648 12.3902V18.1787C63.9648 18.3776 63.8146 18.5388 63.6288 18.5388Z" fill="url(#paint4_linear_2_259)"/>
</g>
<g filter="url(#filter5_i_2_259)">
<path d="M75.8755 7.49827C75.6912 7.49827 75.5421 7.34378 75.5421 7.1531V2.48933C75.5421 2.29886 75.6912 2.1444 75.8755 2.1444C76.0595 2.1444 76.2086 2.29886 76.2086 2.48933V7.1531C76.2086 7.34378 76.0595 7.49827 75.8755 7.49827ZM74.4877 9.31067C74.3995 9.31067 74.3149 9.27442 74.2523 9.21002C74.1897 9.14536 74.1545 9.05738 74.1545 8.9655V1.03756C74.1545 0.847081 74.3035 0.692627 74.4877 0.692627H84.2061C84.3897 0.692627 84.5392 0.847081 84.5392 1.03756C84.5392 1.22827 84.3897 1.38272 84.2061 1.38272H74.8208V8.61941L81.7382 8.59446C81.7382 8.59446 81.7389 8.59446 81.7395 8.59446C81.9229 8.59446 82.072 8.74824 82.0726 8.9385C82.0731 9.12896 81.9246 9.2841 81.7406 9.28458L74.4888 9.31067C74.4883 9.31067 74.4883 9.31067 74.4877 9.31067ZM75.9865 16.8255C75.8025 16.8255 75.6531 16.6711 75.6531 16.4806V11.8169C75.6531 11.6264 75.8025 11.4719 75.9865 11.4719C76.1705 11.4719 76.3197 11.6264 76.3197 11.8169V16.4806C76.3197 16.6711 76.1705 16.8255 75.9865 16.8255ZM84.2061 18.4048H74.4877C74.3035 18.4048 74.1545 18.2504 74.1545 18.0598V10.1319C74.1545 10.0402 74.1897 9.9523 74.2523 9.88741C74.3149 9.82298 74.3995 9.78698 74.4877 9.78698C74.4883 9.78698 74.4883 9.78698 74.4888 9.78698L81.7406 9.81285C81.9246 9.81352 82.0731 9.96843 82.0726 10.1589C82.072 10.3492 81.9229 10.5029 81.7395 10.5029C81.7389 10.5029 81.7382 10.5029 81.7382 10.5029L74.8208 10.4782V17.7148H84.2061C84.3897 17.7148 84.5392 17.8694 84.5392 18.0598C84.5392 18.2504 84.3897 18.4048 84.2061 18.4048Z" fill="url(#paint5_linear_2_259)"/>
</g>
<g filter="url(#filter6_i_2_259)">
<path d="M88.7259 7.96703C88.5165 7.96703 88.3466 7.8098 88.3466 7.61585V2.54364C88.3466 2.3497 88.5165 2.19247 88.7259 2.19247C88.9357 2.19247 89.1054 2.3497 89.1054 2.54364V7.61585C89.1054 7.8098 88.9357 7.96703 88.7259 7.96703ZM87.4069 8.70836H95.436C96.6102 8.70836 97.5659 7.82388 97.5659 6.73689V3.53966C97.5659 2.45246 96.6102 1.56818 95.436 1.56818H87.4069V8.70836ZM95.436 9.41071H87.0272C86.8178 9.41071 86.6477 9.25348 86.6477 9.05954V1.21701C86.6477 1.02308 86.8178 0.865845 87.0272 0.865845H95.436C97.0286 0.865845 98.3245 2.06527 98.3245 3.53966V6.73689C98.3245 8.21129 97.0286 9.41071 95.436 9.41071ZM88.8106 17.3703C88.6008 17.3703 88.4312 17.213 88.4312 17.0191V11.9467C88.4312 11.7528 88.6008 11.5955 88.8106 11.5955C89.02 11.5955 89.1898 11.7528 89.1898 11.9467V17.0191C89.1898 17.213 89.02 17.3703 88.8106 17.3703ZM87.0272 18.4235C86.8178 18.4235 86.6477 18.2666 86.6477 18.0723V10.2301C86.6477 10.0359 86.8178 9.87894 87.0272 9.87894H95.436C97.0286 9.87894 98.3245 11.0783 98.3245 12.5525L98.3792 17.9131C98.3814 18.1071 98.2131 18.2656 98.0037 18.2675C98.0022 18.2675 98.0011 18.2675 98 18.2675C97.792 18.2675 97.6226 18.1125 97.6206 17.9199L97.5659 12.556C97.5659 11.4655 96.6102 10.581 95.436 10.581H87.4069V18.0723C87.4069 18.2666 87.2368 18.4235 87.0272 18.4235Z" fill="url(#paint6_linear_2_259)"/>
</g>
<g filter="url(#filter7_i_2_259)">
<path d="M111.317 6.85916C111.133 6.85916 110.984 6.70236 110.984 6.50913V0.869412C110.984 0.675936 111.133 0.519409 111.317 0.519409C111.501 0.519409 111.65 0.675936 111.65 0.869412V6.50913C111.65 6.70236 111.501 6.85916 111.317 6.85916ZM109.569 18.3777H102.884C101.563 18.3777 100.488 17.1821 100.488 15.7125V3.19161C100.488 1.72206 101.563 0.526329 102.884 0.526329L109.867 0.584512C110.05 0.586129 110.197 0.742438 110.197 0.934529V6.35999C110.197 6.55345 110.048 6.71025 109.864 6.71025C109.68 6.71025 109.531 6.55345 109.531 6.35999V1.282L102.881 1.22635C101.93 1.22635 101.154 2.10786 101.154 3.19161V15.7125C101.154 16.796 101.93 17.6777 102.884 17.6777H109.569C110.523 17.6777 111.299 16.796 111.299 15.7125L111.305 13.645C111.305 13.4519 111.454 13.2961 111.638 13.2961C111.638 13.2961 111.639 13.2961 111.639 13.2961C111.823 13.2966 111.972 13.4538 111.971 13.6472L111.965 15.7136C111.965 17.1821 110.89 18.3777 109.569 18.3777Z" fill="url(#paint7_linear_2_259)"/>
</g>
<defs>
<filter id="filter0_i_2_259" x="0.723999" y="0.0715332" width="11.5671" height="22.4873" filterUnits="userSpaceOnUse" color-interpolation-filters="sRGB">
<feFlood flood-opacity="0" result="BackgroundImageFix"/>
<feBlend mode="normal" in="SourceGraphic" in2="BackgroundImageFix" result="shape"/>
<feColorMatrix in="SourceAlpha" type="matrix" values="0 0 0 0 0 0 0 0 0 0 0 0 0 0 0 0 0 0 127 0" result="hardAlpha"/>
<feOffset dy="4"/>
<feGaussianBlur stdDeviation="2"/>
<feComposite in2="hardAlpha" operator="arithmetic" k2="-1" k3="1"/>
<feColorMatrix type="matrix" values="0 0 0 0 0 0 0 0 0 0 0 0 0 0 0 0 0 0 0.25 0"/>
<feBlend mode="normal" in2="shape" result="effect1_innerShadow_2_259"/>
</filter>
<filter id="filter1_i_2_259" x="14.3998" y="0.519409" width="12.4209" height="21.7681" filterUnits="userSpaceOnUse" color-interpolation-filters="sRGB">
<feFlood flood-opacity="0" result="BackgroundImageFix"/>
<feBlend mode="normal" in="SourceGraphic" in2="BackgroundImageFix" result="shape"/>
<feColorMatrix in="SourceAlpha" type="matrix" values="0 0 0 0 0 0 0 0 0 0 0 0 0 0 0 0 0 0 127 0" result="hardAlpha"/>
<feOffset dy="4"/>
<feGaussianBlur stdDeviation="2"/>
<feComposite in2="hardAlpha" operator="arithmetic" k2="-1" k3="1"/>
<feColorMatrix type="matrix" values="0 0 0 0 0 0 0 0 0 0 0 0 0 0 0 0 0 0 0.25 0"/>
<feBlend mode="normal" in2="shape" result="effect1_innerShadow_2_259"/>
</filter>
<filter id="filter2_i_2_259" x="42.8448" y="0.519409" width="12.4213" height="21.7681" filterUnits="userSpaceOnUse" color-interpolation-filters="sRGB">
<feFlood flood-opacity="0" result="BackgroundImageFix"/>
<feBlend mode="normal" in="SourceGraphic" in2="BackgroundImageFix" result="shape"/>
<feColorMatrix in="SourceAlpha" type="matrix" values="0 0 0 0 0 0 0 0 0 0 0 0 0 0 0 0 0 0 127 0" result="hardAlpha"/>
<feOffset dy="4"/>
<feGaussianBlur stdDeviation="2"/>
<feComposite in2="hardAlpha" operator="arithmetic" k2="-1" k3="1"/>
<feColorMatrix type="matrix" values="0 0 0 0 0 0 0 0 0 0 0 0 0 0 0 0 0 0 0.25 0"/>
<feBlend mode="normal" in2="shape" result="effect1_innerShadow_2_259"/>
</filter>
<filter id="filter3_i_2_259" x="28.9294" y="0.692627" width="11.807" height="21.3556" filterUnits="userSpaceOnUse" color-interpolation-filters="sRGB">
<feFlood flood-opacity="0" result="BackgroundImageFix"/>
<feBlend mode="normal" in="SourceGraphic" in2="BackgroundImageFix" result="shape"/>
<feColorMatrix in="SourceAlpha" type="matrix" values="0 0 0 0 0 0 0 0 0 0 0 0 0 0 0 0 0 0 127 0" result="hardAlpha"/>
<feOffset dy="4"/>
<feGaussianBlur stdDeviation="2"/>
<feComposite in2="hardAlpha" operator="arithmetic" k2="-1" k3="1"/>
<feColorMatrix type="matrix" values="0 0 0 0 0 0 0 0 0 0 0 0 0 0 0 0 0 0 0.25 0"/>
<feBlend mode="normal" in2="shape" result="effect1_innerShadow_2_259"/>
</filter>
<filter id="filter4_i_2_259" x="57.3746" y="0.173096" width="14.6712" height="22.3657" filterUnits="userSpaceOnUse" color-interpolation-filters="sRGB">
<feFlood flood-opacity="0" result="BackgroundImageFix"/>
<feBlend mode="normal" in="SourceGraphic" in2="BackgroundImageFix" result="shape"/>
<feColorMatrix in="SourceAlpha" type="matrix" values="0 0 0 0 0 0 0 0 0 0 0 0 0 0 0 0 0 0 127 0" result="hardAlpha"/>
<feOffset dy="4"/>
<feGaussianBlur stdDeviation="2"/>
<feComposite in2="hardAlpha" operator="arithmetic" k2="-1" k3="1"/>
<feColorMatrix type="matrix" values="0 0 0 0 0 0 0 0 0 0 0 0 0 0 0 0 0 0 0.25 0"/>
<feBlend mode="normal" in2="shape" result="effect1_innerShadow_2_259"/>
</filter>
<filter id="filter5_i_2_259" x="74.1545" y="0.692627" width="10.3846" height="21.7122" filterUnits="userSpaceOnUse" color-interpolation-filters="sRGB">
<feFlood flood-opacity="0" result="BackgroundImageFix"/>
<feBlend mode="normal" in="SourceGraphic" in2="BackgroundImageFix" result="shape"/>
<feColorMatrix in="SourceAlpha" type="matrix" values="0 0 0 0 0 0 0 0 0 0 0 0 0 0 0 0 0 0 127 0" result="hardAlpha"/>
<feOffset dy="4"/>
<feGaussianBlur stdDeviation="2"/>
<feComposite in2="hardAlpha" operator="arithmetic" k2="-1" k3="1"/>
<feColorMatrix type="matrix" values="0 0 0 0 0 0 0 0 0 0 0 0 0 0 0 0 0 0 0.25 0"/>
<feBlend mode="normal" in2="shape" result="effect1_innerShadow_2_259"/>
</filter>
<filter id="filter6_i_2_259" x="86.6477" y="0.865845" width="11.7315" height="21.5577" filterUnits="userSpaceOnUse" color-interpolation-filters="sRGB">
<feFlood flood-opacity="0" result="BackgroundImageFix"/>
<feBlend mode="normal" in="SourceGraphic" in2="BackgroundImageFix" result="shape"/>
<feColorMatrix in="SourceAlpha" type="matrix" values="0 0 0 0 0 0 0 0 0 0 0 0 0 0 0 0 0 0 127 0" result="hardAlpha"/>
<feOffset dy="4"/>
<feGaussianBlur stdDeviation="2"/>
<feComposite in2="hardAlpha" operator="arithmetic" k2="-1" k3="1"/>
<feColorMatrix type="matrix" values="0 0 0 0 0 0 0 0 0 0 0 0 0 0 0 0 0 0 0.25 0"/>
<feBlend mode="normal" in2="shape" result="effect1_innerShadow_2_259"/>
</filter>
<filter id="filter7_i_2_259" x="100.488" y="0.519409" width="11.4832" height="21.8583" filterUnits="userSpaceOnUse" color-interpolation-filters="sRGB">
<feFlood flood-opacity="0" result="BackgroundImageFix"/>
<feBlend mode="normal" in="SourceGraphic" in2="BackgroundImageFix" result="shape"/>
<feColorMatrix in="SourceAlpha" type="matrix" values="0 0 0 0 0 0 0 0 0 0 0 0 0 0 0 0 0 0 127 0" result="hardAlpha"/>
<feOffset dy="4"/>
<feGaussianBlur stdDeviation="2"/>
<feComposite in2="hardAlpha" operator="arithmetic" k2="-1" k3="1"/>
<feColorMatrix type="matrix" values="0 0 0 0 0 0 0 0 0 0 0 0 0 0 0 0 0 0 0.25 0"/>
<feBlend mode="normal" in2="shape" result="effect1_innerShadow_2_259"/>
</filter>
<linearGradient id="paint0_linear_2_259" x1="0.723992" y1="9.3152" x2="12.2911" y2="9.3152" gradientUnits="userSpaceOnUse">
<stop offset="0.0001" stop-color="#FA00FF"/>
<stop offset="0.0002" stop-color="#FA00FF"/>
<stop offset="0.0003" stop-color="#FA00FF"/>
<stop offset="0.0004" stop-color="#FA00FF"/>
<stop offset="0.0005" stop-color="#FF00A8"/>
<stop offset="0.9997" stop-color="#00FFE0"/>
<stop offset="0.9998" stop-color="#00FFE0"/>
<stop offset="0.9999" stop-color="#00FFE0"/>
<stop offset="1" stop-color="#00FFE0"/>
</linearGradient>
<linearGradient id="paint1_linear_2_259" x1="14.3998" y1="9.40345" x2="26.8207" y2="9.40345" gradientUnits="userSpaceOnUse">
<stop offset="0.0001" stop-color="#FA00FF"/>
<stop offset="0.0002" stop-color="#FA00FF"/>
<stop offset="0.0003" stop-color="#FA00FF"/>
<stop offset="0.0004" stop-color="#FA00FF"/>
<stop offset="0.0005" stop-color="#FF00A8"/>
<stop offset="0.9997" stop-color="#00FFE0"/>
<stop offset="0.9998" stop-color="#00FFE0"/>
<stop offset="0.9999" stop-color="#00FFE0"/>
<stop offset="1" stop-color="#00FFE0"/>
</linearGradient>
<linearGradient id="paint2_linear_2_259" x1="42.8448" y1="9.40345" x2="55.2661" y2="9.40345" gradientUnits="userSpaceOnUse">
<stop offset="0.0001" stop-color="#FA00FF"/>
<stop offset="0.0002" stop-color="#FA00FF"/>
<stop offset="0.0003" stop-color="#FA00FF"/>
<stop offset="0.0004" stop-color="#FA00FF"/>
<stop offset="0.0005" stop-color="#FF00A8"/>
<stop offset="0.9997" stop-color="#00FFE0"/>
<stop offset="0.9998" stop-color="#00FFE0"/>
<stop offset="0.9999" stop-color="#00FFE0"/>
<stop offset="1" stop-color="#00FFE0"/>
</linearGradient>
<linearGradient id="paint3_linear_2_259" x1="28.9294" y1="9.37046" x2="40.7363" y2="9.37046" gradientUnits="userSpaceOnUse">
<stop offset="0.0001" stop-color="#FA00FF"/>
<stop offset="0.0002" stop-color="#FA00FF"/>
<stop offset="0.0003" stop-color="#FA00FF"/>
<stop offset="0.0004" stop-color="#FA00FF"/>
<stop offset="0.0005" stop-color="#FF00A8"/>
<stop offset="0.9997" stop-color="#00FFE0"/>
<stop offset="0.9998" stop-color="#00FFE0"/>
<stop offset="0.9999" stop-color="#00FFE0"/>
<stop offset="1" stop-color="#00FFE0"/>
</linearGradient>
<linearGradient id="paint4_linear_2_259" x1="57.3746" y1="9.35597" x2="72.0458" y2="9.35597" gradientUnits="userSpaceOnUse">
<stop offset="0.0001" stop-color="#FA00FF"/>
<stop offset="0.0002" stop-color="#FA00FF"/>
<stop offset="0.0003" stop-color="#FA00FF"/>
<stop offset="0.0004" stop-color="#FA00FF"/>
<stop offset="0.0005" stop-color="#FF00A8"/>
<stop offset="0.9997" stop-color="#00FFE0"/>
<stop offset="0.9998" stop-color="#00FFE0"/>
<stop offset="0.9999" stop-color="#00FFE0"/>
<stop offset="1" stop-color="#00FFE0"/>
</linearGradient>
<linearGradient id="paint5_linear_2_259" x1="74.1545" y1="9.54875" x2="84.5392" y2="9.54875" gradientUnits="userSpaceOnUse">
<stop offset="0.0001" stop-color="#FA00FF"/>
<stop offset="0.0002" stop-color="#FA00FF"/>
<stop offset="0.0003" stop-color="#FA00FF"/>
<stop offset="0.0004" stop-color="#FA00FF"/>
<stop offset="0.0005" stop-color="#FF00A8"/>
<stop offset="0.9997" stop-color="#00FFE0"/>
<stop offset="0.9998" stop-color="#00FFE0"/>
<stop offset="0.9999" stop-color="#00FFE0"/>
<stop offset="1" stop-color="#00FFE0"/>
</linearGradient>
<linearGradient id="paint6_linear_2_259" x1="86.6477" y1="9.64474" x2="98.3792" y2="9.64474" gradientUnits="userSpaceOnUse">
<stop offset="0.0001" stop-color="#FA00FF"/>
<stop offset="0.0002" stop-color="#FA00FF"/>
<stop offset="0.0003" stop-color="#FA00FF"/>
<stop offset="0.0004" stop-color="#FA00FF"/>
<stop offset="0.0005" stop-color="#FF00A8"/>
<stop offset="0.9997" stop-color="#00FFE0"/>
<stop offset="0.9998" stop-color="#00FFE0"/>
<stop offset="0.9999" stop-color="#00FFE0"/>
<stop offset="1" stop-color="#00FFE0"/>
</linearGradient>
<linearGradient id="paint7_linear_2_259" x1="100.488" y1="9.44862" x2="111.971" y2="9.44862" gradientUnits="userSpaceOnUse">
<stop offset="0.0001" stop-color="#FA00FF"/>
<stop offset="0.0002" stop-color="#FA00FF"/>
<stop offset="0.0003" stop-color="#FA00FF"/>
<stop offset="0.0004" stop-color="#FA00FF"/>
<stop offset="0.0005" stop-color="#FF00A8"/>
<stop offset="0.9997" stop-color="#00FFE0"/>
<stop offset="0.9998" stop-color="#00FFE0"/>
<stop offset="0.9999" stop-color="#00FFE0"/>
<stop offset="1" stop-color="#00FFE0"/>
</linearGradient>
</defs>
</svg>
