<svg width="22" height="21" viewBox="0 0 22 21" fill="none" xmlns="http://www.w3.org/2000/svg">
<path d="M19.2275 7.44528L21.0851 4.57318C21.1572 4.46125 21.1765 4.323 21.1375 4.19575C21.0983 4.06835 21.0052 3.96496 20.8824 3.91304L13.0359 0.581366C12.8377 0.49706 12.6072 0.565025 12.4864 0.743185L10.8562 3.14502L9.22634 0.744074C9.10559 0.565625 8.87465 0.497804 8.67666 0.582254L0.828736 3.91423C0.705962 3.96643 0.612545 4.06983 0.573644 4.19737C0.534743 4.32477 0.553832 4.46273 0.626283 4.57465L2.4867 7.44964L0.617028 10.7755C0.557736 10.8813 0.543421 11.0063 0.577117 11.1223C0.610666 11.2384 0.871254 11.3362 0.97738 11.3939L2.91458 12.3404V15.8856C2.91458 16.0517 2.82434 16.2041 2.9704 16.2829L10.7276 20.5132C10.9228 20.5843 11.0923 20.5159 11.097 20.5132L18.8982 16.2832C19.0444 16.2044 19.0894 16.052 19.0894 15.8859V12.3378L20.8849 11.3863C20.9918 11.3289 21.0861 11.231 21.1193 11.1147C21.153 10.9983 21.1459 10.8735 21.0868 10.768L19.2275 7.44528ZM13.0251 1.55721L20.0356 4.53356L18.5341 6.85573L11.5325 3.75588L13.0251 1.55721ZM1.67578 4.53505L8.68779 1.5581L10.178 3.75329L3.17636 6.85433L1.67578 4.53505ZM1.62921 10.8178L3.18969 8.04138L10.2417 11.8978L8.68454 14.6214L1.62921 10.8178ZM10.4326 19.3602L4.01295 15.9082L4.49362 15.6702C4.71762 15.561 4.80641 15.2904 4.69752 15.0664C4.58791 14.8427 4.31588 14.7493 4.09205 14.8589L3.60039 15.1332C3.57421 15.1459 3.59807 15.1613 3.59807 15.1785V12.8272L5.80615 14.0566L5.71505 14.0832C5.49104 14.1924 5.38013 14.4629 5.48931 14.6869C5.56769 14.847 5.71895 14.9403 5.88642 14.9403C5.95294 14.9403 6.01599 14.926 6.07991 14.8945L6.6394 14.6201C6.66355 14.6086 6.68408 14.5941 6.70505 14.5791L8.64443 15.6247C8.71225 15.6615 8.78543 15.6787 8.85788 15.6787C9.01464 15.6787 9.18296 15.5964 9.2661 15.4511L10.4327 13.4391L10.4326 19.3602ZM10.8488 11.2009L4.0245 7.46927L10.4238 4.643C10.4192 4.6683 10.4326 4.69375 10.4326 4.72022V5.34553C10.4326 5.59469 10.6389 5.79684 10.8883 5.79684C11.1375 5.79684 11.344 5.59482 11.344 5.34553V4.72022C11.344 4.69202 11.3196 4.66483 11.3147 4.63822L17.6899 7.46709L10.8488 11.2009ZM18.4061 15.1628C18.1784 15.1526 18.2959 15.1416 18.2787 15.1335L17.6772 14.8591C17.4534 14.7498 17.1632 14.8429 17.0539 15.0667C16.9447 15.2907 17.0279 15.5612 17.2516 15.6704L17.7422 15.9024L11.3436 19.3604V13.4146L12.4823 15.4431C12.5655 15.5887 12.7073 15.6708 12.8648 15.6708C12.9365 15.6708 13.0049 15.653 13.073 15.6166L15.0127 14.5693C15.0373 14.5889 15.0622 14.6055 15.0915 14.6201L15.6529 14.8941C15.7167 14.9255 15.7836 14.94 15.8502 14.94C16.0173 14.94 16.1777 14.8468 16.2561 14.6865C16.3653 14.4627 16.2716 14.1923 16.0481 14.083L16.0565 14.0486L18.406 12.8243L18.4061 15.1628ZM13.0271 14.6136L11.4704 11.89L18.5227 8.03472L20.0822 10.8099L13.0271 14.6136Z" fill="#00FFE0"/>
<path d="M10.8887 9.05676C10.6392 9.05676 10.433 9.25878 10.433 9.50808V10.1332C10.433 10.3827 10.6392 10.5843 10.8887 10.5843C11.1378 10.5843 11.3443 10.3824 11.3443 10.1332V9.50808C11.3442 9.25862 11.1378 9.05676 10.8887 9.05676V9.05676Z" fill="#00FFE0"/>
<path d="M10.8887 6.66309C10.6392 6.66309 10.433 6.86496 10.433 7.11414V7.73971C10.433 7.98887 10.6392 8.19076 10.8887 8.19076C11.1378 8.19076 11.3443 7.98889 11.3443 7.73971V7.11414C11.3442 6.86498 11.1378 6.66309 10.8887 6.66309Z" fill="#00FFE0"/>
</svg>
