<svg width="23" height="23" viewBox="0 0 23 23" fill="none" xmlns="http://www.w3.org/2000/svg">
<path d="M9.47166 8.14264L9.7127 8.38402L9.22994 8.86609L8.98889 8.62471L9.47166 8.14264Z" fill="#00FFE0"/>
<path d="M10.677 7.41889L10.1944 7.90131L9.95319 7.66009L10.4358 7.17767L10.677 7.41889Z" fill="#00FFE0"/>
<path d="M8.50617 9.10681L8.74773 9.3482L8.26548 9.83062L8.02393 9.58923L8.50617 9.10681Z" fill="#00FFE0"/>
<path d="M4.04518 13.4533L3.80414 13.2122L4.28638 12.73L4.52743 12.971L4.04518 13.4533Z" fill="#00FFE0"/>
<path d="M3.08062 14.4169L2.83923 14.1754L3.32183 13.6933L3.56321 13.9349L3.08062 14.4169Z" fill="#00FFE0"/>
<path d="M2.11516 15.3824L1.87411 15.1408L2.35723 14.6586L2.59828 14.9001L2.11516 15.3824Z" fill="#00FFE0"/>
<path d="M10.1949 13.4519L9.95374 13.2109L10.4358 12.7283L10.677 12.9693L10.1949 13.4519Z" fill="#00FFE0"/>
<path d="M9.22994 14.4165L8.98856 14.175L9.47133 13.6927L9.71271 13.9343L9.22994 14.4165Z" fill="#00FFE0"/>
<path d="M8.26494 15.3816L8.02356 15.14L8.5065 14.6576L8.74789 14.8991L8.26494 15.3816Z" fill="#00FFE0"/>
<path d="M9.22994 20.5659L8.98856 20.3243L9.47133 19.8421L9.71271 20.0837L9.22994 20.5659Z" fill="#00FFE0"/>
<path d="M10.1941 19.6025L9.95288 19.3613L10.4353 18.8789L10.6765 19.1201L10.1941 19.6025Z" fill="#00FFE0"/>
<path d="M8.26537 21.5304L8.02399 21.2889L8.50693 20.8065L8.74831 21.048L8.26537 21.5304Z" fill="#00FFE0"/>
<path d="M15.0226 13.6954L15.2637 13.9366L14.7811 14.4187L14.54 14.1775L15.0226 13.6954Z" fill="#00FFE0"/>
<path d="M14.0581 14.6587L14.2991 14.8997L13.8169 15.382L13.5758 15.1409L14.0581 14.6587Z" fill="#00FFE0"/>
<path d="M15.9877 12.7308L16.2287 12.972L15.7459 13.4542L15.5049 13.213L15.9877 12.7308Z" fill="#00FFE0"/>
<path d="M21.0788 12.2474H21.7609V12.5883H21.0788V12.2474Z" fill="#00FFE0"/>
<path d="M10.8181 2.08118H11.159V2.76331H10.8181V2.08118Z" fill="#00FFE0"/>
<path d="M19.714 12.2474H20.3961V12.5883H19.714V12.2474Z" fill="#00FFE0"/>
<path d="M10.8181 3.44562H11.159V4.12775H10.8181V3.44562Z" fill="#00FFE0"/>
<path d="M4.66833 9.57538H5.00923V10.2575H4.66833V9.57538Z" fill="#00FFE0"/>
<path d="M4.66833 8.211H5.00923V8.89313H4.66833V8.211Z" fill="#00FFE0"/>
<path d="M16.3691 12.655H16.7104V13.3372H16.3691V12.655Z" fill="#00FFE0"/>
<path d="M16.3691 14.0193H16.7104V14.7017H16.3691V14.0193Z" fill="#00FFE0"/>
<path d="M16.9858 12.2474H17.6679V12.5883H16.9858V12.2474Z" fill="#00FFE0"/>
<path d="M4.66833 10.9397H5.00923V11.6218H4.66833V10.9397Z" fill="#00FFE0"/>
<path d="M8.26929 6.69556H8.95159V7.03679H8.26929V6.69556Z" fill="#00FFE0"/>
<path d="M4.83903 12.3044H4.66858V12.4181L4.83903 12.5885H5.40772V12.2476H4.83903V12.3044Z" fill="#00FFE0"/>
<path d="M7.4545 12.2474H8.13663V12.5883H7.4545V12.2474Z" fill="#00FFE0"/>
<path d="M9.63361 6.69556H10.3157V7.03679H9.63361V6.69556Z" fill="#00FFE0"/>
<path d="M6.08975 12.2474H6.77206V12.5883H6.08975V12.2474Z" fill="#00FFE0"/>
<path d="M13.5843 18.3972H14.2664V18.7379H13.5843V18.3972Z" fill="#00FFE0"/>
<path d="M8.81842 12.2474H9.50072V12.5883H8.81842V12.2474Z" fill="#00FFE0"/>
<path d="M10.8181 6.17426H11.159V6.85638H10.8181V6.17426Z" fill="#00FFE0"/>
<path d="M14.9486 18.3972H15.6307V18.7379H14.9486V18.3972Z" fill="#00FFE0"/>
<path d="M10.8181 14.3412H11.159V15.0233H10.8181V14.3412Z" fill="#00FFE0"/>
<path d="M10.8181 17.0699H11.159V17.752H10.8181V17.0699Z" fill="#00FFE0"/>
<path d="M10.8181 15.7056H11.159V16.3877H10.8181V15.7056Z" fill="#00FFE0"/>
<path d="M10.9884 18.4342H10.8179V18.5671L10.9884 18.7375H11.5375V18.397H10.9884V18.4342Z" fill="#00FFE0"/>
<path d="M10.8181 4.80951H11.159V5.49164H10.8181V4.80951Z" fill="#00FFE0"/>
<path d="M10.1832 12.2474H10.8653V12.5883H10.1832V12.2474Z" fill="#00FFE0"/>
<path d="M10.8181 12.9769H11.159V13.659H10.8181V12.9769Z" fill="#00FFE0"/>
<path d="M16.7105 6.69554V0.546631H10.9174L7.0085 4.4552V6.6955H5.53994L4.85799 6.69567H4.768L0.859436 10.6046V16.3973H7.00878V22.5466H12.8019L16.7105 18.6381V16.3974H18.9511L22.8595 12.489V6.69545L16.7105 6.69554ZM22.4427 12.2479V12.4238L19.0507 15.8154V10.746L22.5187 7.27817V12.2478L22.4427 12.2479ZM22.2775 7.03696L18.8099 10.5048H13.143L16.6109 7.03696H22.2775ZM11.159 1.39929V0.887608H16.1286L12.6608 4.35543H7.59142L10.8184 1.12864V1.39928L11.159 1.39929ZM16.3694 6.7957L12.902 10.2635V4.59625L16.3694 1.1286V6.7957ZM6.22286 7.03709H7.00911V10.5049H1.44199L4.66843 7.2783V7.52955H5.00932V7.03724H5.54038L6.22286 7.03709ZM1.44177 16.0562L1.63297 15.8652L1.39176 15.6241L1.20073 15.8153V10.8457H7.34964V10.7457L7.78206 10.3136L7.54118 10.0722L7.34981 10.2634V7.03698H7.58711V6.69574H7.34981L7.34964 4.69665H12.5605V10.8456H18.7099V12.2478H18.3498V12.5886H18.7099V16.0561H16.7106V15.3838H16.3694V16.0561H13.143L13.3342 15.8651L13.0933 15.6239L12.6609 16.056H12.5608V18.3972H12.2201V18.7379H12.5608V22.2054L7.5912 22.2057L7.7824 22.0147L7.54153 21.7734L7.35016 21.9646L7.34999 16.2974L7.7824 15.8653L7.54153 15.6241L7.10912 16.0562L1.44177 16.0562ZM16.3694 16.7484V18.3974H16.3131V18.5538L12.902 21.9646V16.3975H16.3694V16.7484Z" fill="#00FFE0"/>
</svg>
