<svg width="100" height="100" viewBox="0 0 100 100" fill="none" xmlns="http://www.w3.org/2000/svg">
<path d="M11.5999 27.2471H34.6641C35.5475 27.2471 36.264 26.5301 36.264 25.6473V2.58156C36.264 1.69819 35.5469 0.981705 34.6641 0.981705H11.5999C10.7165 0.981705 10 1.69878 10 2.58156V25.6473C10 26.5301 10.7171 27.2471 11.5999 27.2471V27.2471ZM13.1997 4.18142H33.064V24.0471H13.1997V4.18142Z" fill="#00FFE0"/>
<path d="M27.67 7.97428H18.5936C17.7102 7.97428 16.9937 8.69135 16.9937 9.57414V18.6523C16.9937 19.5357 17.7108 20.2521 18.5936 20.2521H27.6717C28.5551 20.2521 29.2716 19.5351 29.2716 18.6523V9.57414C29.2705 8.69132 28.5551 7.97428 27.67 7.97428V7.97428ZM26.0701 17.053H20.1934V11.1747H26.0717V17.053H26.0701Z" fill="#00FFE0"/>
<path d="M34.6643 52.7529H11.6C10.7166 52.7529 10.0002 53.4683 10.0002 54.3527V77.4184C10.0002 78.3035 10.7172 79.0183 11.6 79.0183H34.6643C35.5477 79.0183 36.2642 78.3029 36.2642 77.4184V54.3527C36.2642 53.4677 35.5476 52.7523 34.6643 52.7523V52.7529ZM33.0644 75.8186H13.2002V55.9529H33.0644V75.8186Z" fill="#00FFE0"/>
<path d="M18.5943 72.0257H27.6724C28.5558 72.0257 29.2723 71.3103 29.2723 70.4259V61.3477C29.2723 60.4627 28.5552 59.7478 27.6724 59.7478L18.5943 59.7473C17.7109 59.7473 16.9944 60.4627 16.9944 61.3471V70.4253C16.9944 71.3087 17.7093 72.0257 18.5943 72.0257V72.0257ZM20.1941 62.947H26.0724V68.8253H20.1941V62.947Z" fill="#00FFE0"/>
<path d="M88.4 0.981018H65.3343C64.4493 0.981018 63.7344 1.69809 63.7344 2.58088V25.6466C63.7344 26.53 64.4498 27.2464 65.3343 27.2464H88.4C89.2851 27.2464 89.9999 26.5294 89.9999 25.6466V2.58088C89.9999 1.6975 89.2845 0.981018 88.4 0.981018V0.981018ZM86.8002 24.0467H66.9344V4.18102H86.8002V24.0467Z" fill="#00FFE0"/>
<path d="M72.3286 20.2529H81.4067C82.2918 20.2529 83.0066 19.5358 83.0066 18.653V9.57428C83.0066 8.69091 82.2912 7.97443 81.4067 7.97443H72.3286C71.4435 7.97443 70.7287 8.6915 70.7287 9.57428V18.6524C70.7287 19.5364 71.4436 20.2529 72.3286 20.2529V20.2529ZM73.9284 11.1747H79.8067V17.053H73.9284V11.1747Z" fill="#00FFE0"/>
<path d="M88.4 52.7529H65.3343C64.4493 52.7529 63.7344 53.4683 63.7344 54.3527V77.4184C63.7344 78.3035 64.4498 79.0183 65.3343 79.0183H88.4C89.2851 79.0183 89.9999 78.3029 89.9999 77.4184V54.3527C89.9999 53.4677 89.2845 52.7523 88.4 52.7523V52.7529ZM86.8002 75.8186H66.9344V55.9529H86.8002V75.8186Z" fill="#00FFE0"/>
<path d="M72.3286 72.0257H81.4067C82.2918 72.0257 83.0066 71.3103 83.0066 70.4258V61.3477C83.0066 60.4627 82.2912 59.7478 81.4067 59.7478H72.3286C71.4435 59.7478 70.7287 60.4632 70.7287 61.3477V70.4258C70.7287 71.3087 71.4436 72.0257 72.3286 72.0257V72.0257ZM73.9284 62.947H79.8067V68.8253H73.9284V62.947Z" fill="#00FFE0"/>
<path d="M45.3372 20.2529H49.9996C50.8846 20.2529 51.5994 19.5358 51.5994 18.653C51.5994 17.7696 50.884 17.0531 49.9996 17.0531H46.937V2.58171C46.937 1.69834 46.2199 0.981857 45.3372 0.981857C44.4538 0.981857 43.7373 1.69893 43.7373 2.58171V18.6531C43.7373 19.5365 44.4538 20.253 45.3372 20.253V20.2529Z" fill="#00FFE0"/>
<path d="M46.5643 24.0457C45.6809 24.0457 44.9644 24.7628 44.9644 25.6456C44.9644 26.5289 45.6815 27.2454 46.5643 27.2454H56.134C57.019 27.2454 57.7338 26.5284 57.7338 25.6456V2.57985C57.7338 1.69648 57.0184 0.979996 56.134 0.979996C55.2489 0.979996 54.5341 1.69707 54.5341 2.57985V24.0456L46.5643 24.0457Z" fill="#00FFE0"/>
<path d="M11.5999 34.9743H42.0213V40C42.0213 40.8834 42.7384 41.5999 43.6211 41.5999C44.5045 41.5999 45.221 40.8828 45.221 40V33.3744C45.221 32.4911 44.5039 31.7746 43.6211 31.7746H11.6011C10.7178 31.7746 10.0013 32.4916 10.0013 33.3744C10.0013 34.2578 10.7184 34.9743 11.6011 34.9743H11.5999Z" fill="#00FFE0"/>
<path d="M88.4 31.7743H65.3343C64.4493 31.7743 63.7344 32.4914 63.7344 33.3741V37.1727H56.1346C55.2495 37.1727 54.5347 37.8898 54.5347 38.7726C54.5347 39.6559 55.2501 40.3724 56.1346 40.3724H65.3343C66.2193 40.3724 66.9342 39.6554 66.9342 38.7726V34.974H88.3999C89.2849 34.974 89.9997 34.2569 89.9997 33.3741C89.9997 32.4908 89.2843 31.7743 88.3999 31.7743H88.4Z" fill="#00FFE0"/>
<path d="M88.4 44.29H60.7343C59.8492 44.29 59.1344 45.0054 59.1344 45.8899C59.1344 46.7749 59.8498 47.4897 60.7343 47.4897H88.4C89.285 47.4897 89.9999 46.7743 89.9999 45.8899C89.9999 45.0054 89.2845 44.29 88.4 44.29Z" fill="#00FFE0"/>
<path d="M43.62 52.7529C42.7366 52.7529 42.0201 53.4683 42.0201 54.3527V61.3466C42.0201 62.2316 42.7372 62.9464 43.62 62.9464H52.6999C53.5849 62.9464 54.2997 62.231 54.2997 61.3466C54.2997 60.4615 53.5843 59.7467 52.6999 59.7467H45.22V54.3533C45.2206 53.4682 44.5035 52.7529 43.6201 52.7529H43.62Z" fill="#00FFE0"/>
<path d="M58.1457 52.7529H58.096C57.235 52.7529 56.5246 53.4376 56.4978 54.3047L56.0547 68.8247H43.6211C42.7377 68.8247 42.0212 69.5401 42.0212 70.4246C42.0212 71.3096 42.7383 72.0244 43.6211 72.0244H57.5585H57.6065H57.6082C57.8258 72.0244 58.034 71.9798 58.2243 71.8994C58.2884 71.8721 58.3364 71.8213 58.3956 71.7873C58.5122 71.7203 58.6305 71.6578 58.7282 71.5635C58.784 71.5077 58.8163 71.4324 58.8643 71.3698C58.9397 71.2688 59.0211 71.1779 59.0708 71.0624C59.1043 70.987 59.1059 70.8994 59.1266 70.8191C59.1567 70.7052 59.2036 70.5964 59.2064 70.4737L59.6975 54.4022C59.7231 53.5183 59.0301 52.7805 58.1456 52.7532L58.1457 52.7529Z" fill="#00FFE0"/>
<path d="M58.0971 75.8186H43.62C42.7366 75.8186 42.0201 76.534 42.0201 77.4184C42.0201 78.3035 42.7372 79.0183 43.62 79.0183H58.0971C58.9822 79.0183 59.697 78.3029 59.697 77.4184C59.697 76.534 58.9805 75.8186 58.0971 75.8186V75.8186Z" fill="#00FFE0"/>
<path d="M11.5999 47.49C12.4832 47.49 13.1997 46.7746 13.1997 45.8901V41.6006H30.4883V45.8901C30.4883 46.7752 31.2054 47.49 32.0882 47.49H48.7724C49.6558 47.49 50.3723 46.7746 50.3723 45.8901C50.3723 45.0051 49.6552 44.2903 48.7724 44.2903H33.6882L33.6887 40.0007C33.6887 39.1173 32.9716 38.4008 32.0889 38.4008H11.6003C10.7169 38.4008 10.0004 39.1179 10.0004 40.0007V45.8903C10.0004 46.7736 10.7175 47.4901 11.6003 47.4901L11.5999 47.49Z" fill="#00FFE0"/>
</svg>
