<svg width="225" height="225" viewBox="0 0 225 225" fill="none" xmlns="http://www.w3.org/2000/svg">
<path d="M206.247 36.394V9.37563C206.245 6.88959 205.257 4.50688 203.5 2.74834C201.743 0.989643 199.359 0.00198407 196.873 0H28.1255C25.6395 0 23.2548 0.989643 21.4962 2.74636C19.7375 4.50505 18.7499 6.88975 18.7479 9.37568V36.3941L0.497013 72.9039C0.163156 73.5518 -0.00576054 74.2712 0.00020183 75.0005V86.7192C0.0141122 91.0653 1.37338 95.3021 3.89121 98.8474C6.40706 102.393 9.96042 105.071 14.0598 106.518V215.621H4.68789C2.09853 215.621 0 217.72 0 220.309C0 222.899 2.09853 224.997 4.68789 224.997H220.31C222.899 224.997 225 222.899 225 220.309C225 217.72 222.899 215.621 220.31 215.621H210.932L210.934 106.518C215.034 105.071 218.587 102.393 221.105 98.8495C223.622 95.3042 224.98 91.0653 224.994 86.7192V75.0005C225 74.2712 224.831 73.5538 224.503 72.9039L206.247 36.394ZM198.661 42.187L212.721 70.3124L190.744 70.3104L180.202 42.185L198.661 42.187ZM154.682 79.6884H182.809V86.7191C182.805 89.8252 181.571 92.8041 179.373 95.0018C177.175 97.1977 174.196 98.4338 171.09 98.4358H166.401C163.294 98.4338 160.316 97.1977 158.12 94.9998C155.922 92.8039 154.686 89.825 154.682 86.7191L154.682 79.6884ZM154.133 70.3104L150.62 42.185H170.182L180.73 70.3104H154.133ZM28.1247 9.3741H196.872V32.8115H28.1247V9.3741ZM145.312 79.6863V86.7171C145.31 89.8231 144.074 92.802 141.876 94.9977C139.68 97.1956 136.701 98.4317 133.593 98.4337H128.905C125.799 98.4317 122.82 97.1956 120.622 94.9977C118.427 92.8018 117.191 89.8229 117.187 86.7171V79.6863H145.312ZM117.186 70.3083V42.1829H141.172L144.69 70.3083H117.186ZM80.3112 70.3083L83.8246 42.1829H107.81V70.3083H80.3112ZM107.811 79.6863V86.7171C107.807 89.8231 106.573 92.802 104.375 94.9998C102.177 97.1957 99.198 98.4317 96.0922 98.4337H91.4083C88.3002 98.4317 85.3213 97.1957 83.1256 94.9998C80.9277 92.8019 79.6916 89.8229 79.6896 86.7171V79.6863H107.811ZM44.2648 70.3083L54.8129 42.1829H74.3814L70.8639 70.3083H44.2648ZM70.3135 79.6863V86.7171C70.3096 89.8231 69.0735 92.802 66.8756 94.9977C64.6797 97.1956 61.7008 98.4317 58.5949 98.4337H53.905C50.7989 98.4317 47.82 97.1956 45.6243 94.9977C43.4264 92.8018 42.1904 89.8229 42.1864 86.7171V79.6863H70.3135ZM26.3339 42.1829H44.7995L34.2514 70.3083H12.2745L26.3339 42.1829ZM9.37678 86.7171V79.6863H32.8142V86.7171C32.8142 90.9022 30.5805 94.7713 26.9556 96.8638C23.3289 98.9583 18.8616 98.9583 15.2369 96.8638C11.6102 94.7712 9.37627 90.9019 9.37627 86.7171H9.37678ZM89.0599 215.62H51.5626V140.618C51.5666 138.03 53.6631 135.934 56.2505 135.93H89.0598L89.0599 215.62ZM201.556 215.62H98.4359V196.871H168.748C172.476 196.867 176.051 195.382 178.688 192.745C181.323 190.11 182.806 186.535 182.81 182.805V140.62C182.806 136.892 181.321 133.318 178.686 130.682C176.051 128.047 172.476 126.564 168.748 126.56H56.2517C52.5236 126.562 48.9488 128.045 46.3115 130.682C43.6744 133.317 42.1919 136.892 42.186 140.62V215.623H23.4381V107.674C28.9807 107.016 34.0381 104.189 37.498 99.8107C41.4586 104.842 47.5017 107.79 53.9047 107.813H58.5946C64.9975 107.789 71.0408 104.842 75.0013 99.8107C78.9619 104.842 85.003 107.792 91.408 107.813H96.0919C102.495 107.791 108.538 104.842 112.499 99.8086C116.459 104.842 122.502 107.79 128.905 107.813H133.593C139.998 107.789 146.041 104.842 150.002 99.8086C153.958 104.842 160 107.791 166.403 107.813H171.092C177.495 107.789 183.539 104.842 187.499 99.8086C190.961 104.189 196.016 107.016 201.559 107.674L201.556 215.62ZM98.4359 187.495V135.93H168.748C171.335 135.934 173.432 138.03 173.438 140.617V182.803C173.432 185.39 171.336 187.487 168.748 187.493L98.4359 187.495ZM215.623 86.7145C215.623 90.8997 213.389 94.7688 209.764 96.8612C206.138 98.9558 201.67 98.9558 198.046 96.8612C194.419 94.7686 192.185 90.8994 192.185 86.7145V79.6838H215.622L215.623 86.7145ZM74.9985 182.804C74.9985 180.91 76.1411 179.203 77.8919 178.478C79.6427 177.753 81.6577 178.154 82.9971 179.494C84.3365 180.833 84.7379 182.848 84.0145 184.599C83.2892 186.35 81.5822 187.492 79.6863 187.494C78.4423 187.494 77.2499 187.001 76.3696 186.121C75.4893 185.243 74.9964 184.048 74.9984 182.804L74.9985 182.804Z" fill="black"/>
</svg>
